<svg width="300" height="208" viewBox="0 0 300 208" fill="none" xmlns="http://www.w3.org/2000/svg">
<g clip-path="url(#clip0)">
<path opacity="0.1" d="M8.23842 186.131C12.7884 186.131 16.4768 185.631 16.4768 185.013C16.4768 184.396 12.7884 183.896 8.23842 183.896C3.68847 183.896 0 184.396 0 185.013C0 185.631 3.68847 186.131 8.23842 186.131Z" fill="#96CEA7"/>
<path opacity="0.1" d="M39.819 189.356C44.369 189.356 48.0574 188.856 48.0574 188.238C48.0574 187.621 44.369 187.121 39.819 187.121C35.269 187.121 31.5806 187.621 31.5806 188.238C31.5806 188.856 35.269 189.356 39.819 189.356Z" fill="#96CEA7"/>
<path opacity="0.1" d="M77.0197 185.013C81.5696 185.013 85.2581 184.513 85.2581 183.896C85.2581 183.278 81.5696 182.778 77.0197 182.778C72.4697 182.778 68.7812 183.278 68.7812 183.896C68.7812 184.513 72.4697 185.013 77.0197 185.013Z" fill="#96CEA7"/>
<path opacity="0.1" d="M27.174 198.137C30.419 198.137 33.0495 197.78 33.0495 197.339C33.0495 196.898 30.419 196.541 27.174 196.541C23.9291 196.541 21.2986 196.898 21.2986 197.339C21.2986 197.78 23.9291 198.137 27.174 198.137Z" fill="#96CEA7"/>
<path opacity="0.1" d="M59.968 197.339C63.2129 197.339 65.8435 196.982 65.8435 196.541C65.8435 196.1 63.2129 195.742 59.968 195.742C56.7231 195.742 54.0925 196.1 54.0925 196.541C54.0925 196.982 56.7231 197.339 59.968 197.339Z" fill="#96CEA7"/>
<path d="M40.0107 187.983C40.0107 187.983 28.4513 150.08 41.8308 134.88C51.8255 123.512 63.1932 124.886 68.2704 126.291C70.9207 126.993 73.156 128.845 74.3374 131.336C76.1256 135.168 75.8063 141.394 63.2251 148.675C42.214 160.841 40.9048 177.541 40.9048 177.541L40.0107 187.983Z" fill="#96CEA7"/>
<path d="M66.4502 131.655C66.4502 131.655 32.347 142.32 40.0106 187.983" stroke="#565987" stroke-miterlimit="10"/>
<path d="M46.5566 135.487C46.5566 135.487 51.2506 138.648 49.7498 143.406" stroke="#565987" stroke-miterlimit="10"/>
<path d="M63.0335 138.297C63.0335 138.297 60.1597 135.391 56.6791 136.988" stroke="#565987" stroke-miterlimit="10"/>
<path d="M49.5583 152.986C49.5583 152.986 44.5131 150.431 43.2039 153.624" stroke="#565987" stroke-miterlimit="10"/>
<path d="M37.1049 158.318C37.1049 158.318 40.8728 158.031 40.9686 159.819" stroke="#565987" stroke-miterlimit="10"/>
<path d="M39.5317 188.27C39.5317 188.27 53.0709 160.713 56.8069 161.32C58.5631 161.607 59.3934 163.332 59.7446 165.088C60.1917 167.355 59.9362 169.718 59.0102 171.825C57.1262 176.2 51.9213 184.598 39.5317 188.27Z" fill="#96CEA7"/>
<path d="M56.711 166.557C56.711 166.557 42.5013 187.185 39.7551 188.079" stroke="#565987" stroke-miterlimit="10"/>
<path d="M58.0203 169.782H54.6993" stroke="#565987" stroke-miterlimit="10"/>
<path d="M54.0288 177.318L48.8239 177.541" stroke="#565987" stroke-miterlimit="10"/>
<path d="M50.8674 171.283L51.4422 173.997" stroke="#565987" stroke-miterlimit="10"/>
<path d="M45.3433 179.521L45.4391 181.98" stroke="#565987" stroke-miterlimit="10"/>
<path d="M39.9468 188.27C39.9468 188.27 26.4077 160.713 22.6717 161.32C20.9154 161.607 20.0852 163.332 19.7339 165.088C19.2869 167.355 19.5423 169.686 20.4684 171.794C22.3843 176.2 27.5572 184.598 39.9468 188.27Z" fill="#96CEA7"/>
<path d="M22.7675 166.557C22.7675 166.557 36.9771 187.185 39.7233 188.079" stroke="#565987" stroke-miterlimit="10"/>
<path d="M21.4583 169.782H24.7792" stroke="#565987" stroke-miterlimit="10"/>
<path d="M25.4497 177.318L30.6546 177.541" stroke="#565987" stroke-miterlimit="10"/>
<path d="M28.611 171.283L28.0363 173.997" stroke="#565987" stroke-miterlimit="10"/>
<path d="M34.1352 179.521L34.0394 181.98" stroke="#565987" stroke-miterlimit="10"/>
<path d="M63.1932 194.721C63.5764 194.433 63.8318 194.018 63.9595 193.571C64.0873 193.092 63.8637 192.613 63.4167 192.39C62.9377 192.198 62.3949 192.549 61.9798 192.9C61.5647 193.252 61.1176 193.635 60.6067 193.571C61.1495 193.06 61.405 192.326 61.2453 191.591C61.2134 191.432 61.1495 191.304 61.0537 191.176C60.7664 190.889 60.2874 191.017 59.9361 191.24C58.8824 191.974 58.595 193.411 58.595 194.689C58.5311 194.21 58.5311 193.731 58.563 193.284C58.563 192.805 58.4353 192.294 58.0202 192.038C57.7648 191.911 57.5093 191.847 57.2219 191.847C56.7429 191.847 56.232 191.879 55.9127 192.23C55.4976 192.645 55.6253 193.379 55.9766 193.858C56.3597 194.305 56.8387 194.657 57.3496 194.944C57.7328 195.168 58.0521 195.487 58.3076 195.87C58.3395 195.934 58.3715 195.966 58.3715 196.03H61.3092C62.0117 195.647 62.6503 195.2 63.1932 194.721Z" fill="#96CEA7"/>
<path d="M11.5913 183.608C11.9745 183.321 12.2299 182.906 12.3577 182.459C12.4854 181.98 12.2619 181.501 11.8148 181.277C11.3039 181.086 10.793 181.437 10.3779 181.788C9.96277 182.139 9.51572 182.523 9.00481 182.459C9.54765 181.948 9.80311 181.213 9.64345 180.479C9.61152 180.319 9.54765 180.192 9.45186 180.064C9.16447 179.777 8.68549 179.904 8.36617 180.128C7.31242 180.862 7.02503 182.299 7.02503 183.576C6.96117 183.097 6.96117 182.618 6.9931 182.171C6.9931 181.692 6.86538 181.182 6.45026 180.926C6.19481 180.798 5.90742 180.734 5.65196 180.734C5.17299 180.703 4.66208 180.766 4.34276 181.118C3.92764 181.533 4.05537 182.267 4.40662 182.714C4.7898 183.161 5.26878 183.513 5.77969 183.8C6.16287 184.023 6.48219 184.343 6.73765 184.726C6.76958 184.79 6.80151 184.822 6.80151 184.886H9.73924C10.4098 184.534 11.0165 184.119 11.5913 183.608Z" fill="#96CEA7"/>
<path d="M28.8026 194.721C29.1858 194.433 29.4412 194.018 29.569 193.571C29.6967 193.092 29.4732 192.613 29.0261 192.39C28.5152 192.198 28.0043 192.549 27.5892 192.9C27.1741 193.252 26.727 193.635 26.2161 193.571C26.759 193.06 27.0144 192.326 26.8548 191.591C26.8228 191.432 26.759 191.304 26.6632 191.176C26.3758 190.889 25.8968 191.017 25.5775 191.24C24.5237 191.974 24.2363 193.411 24.2363 194.689C24.1725 194.21 24.1725 193.731 24.2044 193.284C24.2044 192.805 24.0767 192.294 23.6616 192.038C23.4061 191.911 23.1187 191.847 22.8633 191.847C22.3843 191.847 21.8734 191.879 21.5541 192.23C21.1389 192.645 21.2667 193.379 21.6179 193.858C22.0011 194.305 22.4801 194.657 22.991 194.944C23.3742 195.168 23.6935 195.487 23.949 195.87C23.9809 195.934 24.0128 195.966 24.0128 196.03H26.9505C27.6211 195.647 28.2278 195.2 28.8026 194.721Z" fill="#96CEA7"/>
<path d="M77.5626 172.272C77.5626 172.272 78.6802 173.709 77.0517 175.913C75.4231 178.116 74.1139 179.936 74.6568 181.309C74.6568 181.309 77.0836 177.254 79.0634 177.19C81.0431 177.126 79.7659 174.699 77.5626 172.272Z" fill="#96CEA7"/>
<path opacity="0.1" d="M77.5626 172.272C77.6584 172.4 77.7222 172.56 77.7861 172.72C79.7339 174.987 80.7558 177.126 78.9037 177.158C77.1794 177.222 75.1038 180.319 74.5929 181.086C74.5929 181.15 74.6248 181.213 74.6568 181.277C74.6568 181.277 77.0836 177.222 79.0634 177.158C81.0432 177.094 79.7659 174.699 77.5626 172.272Z" fill="black"/>
<path d="M79.6381 174.124C79.6381 174.635 79.5743 175.051 79.5104 175.051C79.4466 175.051 79.3827 174.635 79.3827 174.124C79.3827 173.614 79.4466 173.869 79.5424 173.869C79.6381 173.869 79.6381 173.614 79.6381 174.124Z" fill="#FFD037"/>
<path d="M80.3406 174.731C79.8935 174.987 79.5103 175.114 79.4784 175.051C79.4465 174.987 79.7658 174.731 80.2128 174.508C80.6599 174.284 80.4683 174.444 80.5322 174.508C80.596 174.572 80.7876 174.476 80.3406 174.731Z" fill="#FFD037"/>
<path d="M71.719 172.272C71.719 172.272 70.6014 173.709 72.2299 175.913C73.8585 178.116 75.1677 179.936 74.6248 181.309C74.6248 181.309 72.198 177.254 70.2182 177.19C68.2384 177.126 69.5796 174.699 71.719 172.272Z" fill="#96CEA7"/>
<path opacity="0.1" d="M71.719 172.272C71.6232 172.4 71.5594 172.56 71.4955 172.72C69.5477 174.987 68.5258 177.126 70.3779 177.158C72.1022 177.222 74.1778 180.319 74.6887 181.086C74.6568 181.15 74.6568 181.213 74.6248 181.277C74.6248 181.277 72.198 177.222 70.2182 177.158C68.2384 177.094 69.5796 174.699 71.719 172.272Z" fill="black"/>
<path d="M69.6753 174.124C69.6753 174.635 69.7392 175.051 69.803 175.051C69.8669 175.051 69.9307 174.635 69.9307 174.124C69.9307 173.614 69.8669 173.869 69.803 173.869C69.7392 173.869 69.6753 173.614 69.6753 174.124Z" fill="#FFD037"/>
<path d="M68.9729 174.731C69.4199 174.987 69.8031 175.114 69.835 175.051C69.867 174.987 69.5157 174.731 69.1006 174.508C68.6855 174.284 68.8132 174.444 68.7813 174.508C68.7493 174.572 68.5258 174.476 68.9729 174.731Z" fill="#FFD037"/>
<path d="M70.0266 181.086C70.0266 181.086 73.124 180.99 74.05 180.319C74.976 179.649 78.8079 178.85 79.0314 179.936C79.2549 181.022 83.6615 185.237 80.1809 185.269C76.7004 185.301 72.0703 184.726 71.1442 184.151C70.2182 183.576 70.0266 181.086 70.0266 181.086Z" fill="#A8A8A8"/>
<path opacity="0.2" d="M80.2448 184.886C76.7642 184.918 72.1341 184.343 71.2081 183.768C70.5056 183.353 70.2182 181.788 70.1224 181.086H70.0266C70.0266 181.086 70.2182 183.576 71.1442 184.151C72.0702 184.726 76.7004 185.301 80.1809 185.269C81.2028 185.269 81.5221 184.886 81.5221 184.375C81.3943 184.694 81.0112 184.886 80.2448 184.886Z" fill="black"/>
<path opacity="0.1" d="M194.816 207.398C252.908 207.398 300 205.267 300 202.64C300 200.012 252.908 197.882 194.816 197.882C136.725 197.882 89.6328 200.012 89.6328 202.64C89.6328 205.267 136.725 207.398 194.816 207.398Z" fill="#96CEA7"/>
<path d="M184.087 60C184.087 60 190.793 72.677 191.304 74.4971C191.591 75.5189 192.485 76.2533 193.571 76.3172C193.571 76.3172 200.245 77.9138 201.841 78.1373C203.438 78.3608 217.265 79.5104 217.265 79.5104C217.265 79.5104 220.777 79.6062 221.192 78.3289C221.575 77.1474 228.377 71.0165 232.304 76.3811C233.039 77.371 233.262 78.6802 232.879 79.8617C232.145 82.1607 230.676 85.801 229.079 83.5338C226.844 80.3406 224.258 81.2347 224.258 82.9271C224.258 84.6195 220.681 84.0128 219.5 84.2363C218.861 84.364 216.658 84.9388 214.774 85.4497C212.571 86.0564 210.303 86.4077 208.036 86.5673C204.268 86.8228 198.712 87.0144 196.732 86.28C194.337 85.3859 190.218 85.1623 188.43 85.1304C187.855 85.1304 187.281 84.9069 186.802 84.5556C184.343 82.6397 182.267 80.2448 180.639 77.5626C177.861 72.7728 172.177 62.842 172.56 59.9681C172.943 57.0942 184.087 60 184.087 60Z" fill="#EFB7B9"/>
<path opacity="0.05" d="M184.087 60C184.087 60 190.793 72.677 191.304 74.4971C191.591 75.5189 192.485 76.2533 193.571 76.3172C193.571 76.3172 200.245 77.9138 201.841 78.1373C203.438 78.3608 217.265 79.5104 217.265 79.5104C217.265 79.5104 220.777 79.6062 221.192 78.3289C221.575 77.1474 228.377 71.0165 232.304 76.3811C233.039 77.371 233.262 78.6802 232.879 79.8617C232.145 82.1607 230.676 85.801 229.079 83.5338C226.844 80.3406 224.258 81.2347 224.258 82.9271C224.258 84.6195 220.681 84.0128 219.5 84.2363C218.861 84.364 216.658 84.9388 214.774 85.4497C212.571 86.0564 210.303 86.4077 208.036 86.5673C204.268 86.8228 198.712 87.0144 196.732 86.28C194.337 85.3859 190.218 85.1623 188.43 85.1304C187.855 85.1304 187.281 84.9069 186.802 84.5556C184.343 82.6397 182.267 80.2448 180.639 77.5626C177.861 72.7728 172.177 62.842 172.56 59.9681C172.943 57.0942 184.087 60 184.087 60Z" fill="black"/>
<path d="M287.163 178.85C287.131 193.411 275.317 205.162 260.788 205.162C247.153 205.13 235.785 194.689 234.603 181.086C234.572 180.671 234.54 180.224 234.508 179.808V179.776C234.508 179.457 234.476 179.138 234.476 178.819C234.476 164.258 246.259 152.475 260.82 152.475C275.38 152.475 287.163 164.258 287.163 178.85Z" fill="#65617D"/>
<path d="M260.82 193.188C268.756 193.188 275.189 186.754 275.189 178.819C275.189 170.883 268.756 164.449 260.82 164.449C252.884 164.449 246.45 170.883 246.45 178.819C246.45 186.754 252.884 193.188 260.82 193.188Z" fill="#DCE0ED"/>
<path d="M260.82 187.44C265.581 187.44 269.441 183.58 269.441 178.819C269.441 174.057 265.581 170.197 260.82 170.197C256.058 170.197 252.198 174.057 252.198 178.819C252.198 183.58 256.058 187.44 260.82 187.44Z" fill="#65617D"/>
<path d="M191.623 128.813L128.175 130.09V120.734C128.749 113.199 136.477 110.58 143.502 109.75C148.994 109.111 154.55 109.558 159.883 110.963C173.326 114.54 181.916 115.21 186.131 115.274C188.047 115.306 189.675 116.679 190.027 118.563C190.218 119.617 190.442 120.798 190.601 121.948C190.729 122.842 190.889 123.736 190.985 124.566C191.4 126.929 191.623 128.813 191.623 128.813Z" fill="#65617D"/>
<path d="M242.235 180.543H110.452C108.377 180.575 106.493 179.329 105.663 177.445C104.673 175.082 106.046 173.55 107.547 172.656C110.58 170.867 112.879 168.057 114.029 164.705C115.434 160.553 116.807 154.071 117.35 143.917C117.892 133.411 121.692 128.238 125.812 125.716C131.112 122.459 136.924 123.704 136.924 123.704L190.346 124.119C191.304 124.566 192.166 125.109 192.964 125.812C197.722 130.25 190.793 136.03 190.793 136.03C175.881 151.772 187.185 167.738 187.185 167.738H214.518C219.627 167.77 224.609 166.237 228.824 163.363C232.528 160.809 233.933 158.35 234.508 156.849C234.923 155.7 235.37 154.55 235.881 153.465C243.065 137.914 234.412 112.592 230.676 103.14C229.75 100.777 229.143 99.4039 229.143 99.4039L237.701 98.7653L243.129 98.3502H243.193C255.136 118.946 259.574 140.149 261.075 155.828C261.203 157.296 261.33 158.733 261.426 160.106C262.097 170.676 254.114 179.776 243.544 180.447C243.065 180.511 242.65 180.543 242.235 180.543Z" fill="#96CEA7"/>
<path opacity="0.1" d="M191.048 124.566H128.175V121.948H190.633C190.793 122.842 190.921 123.704 191.048 124.566Z" fill="black"/>
<path opacity="0.1" d="M192.964 125.844H126.291C126.131 125.844 125.939 125.812 125.78 125.748C131.08 122.491 136.892 123.736 136.892 123.736L190.314 124.151C191.304 124.566 192.166 125.141 192.964 125.844Z" fill="black"/>
<path d="M102.98 122.555H193.507C194.242 122.555 194.816 123.129 194.816 123.864C194.816 124.598 194.242 125.173 193.507 125.173H102.98C102.246 125.173 101.671 124.598 101.671 123.864C101.671 123.161 102.246 122.555 102.98 122.555Z" fill="#DCE0ED"/>
<path opacity="0.1" d="M261.011 155.86C257.978 159.148 255.742 160.458 255.838 156.977C256.158 146.44 237.637 98.7973 237.637 98.7973L243.129 98.3821C255.072 118.978 259.542 140.149 261.011 155.86Z" fill="black"/>
<path opacity="0.1" d="M287.004 175.945C283.874 176.711 279.979 177.477 275.189 178.18C273.401 178.435 271.485 178.691 269.441 178.946C264.556 179.521 258.872 180.032 252.358 180.415C250.506 180.511 248.59 180.639 246.578 180.734C242.842 180.894 238.85 181.022 234.571 181.118L234.476 179.84V179.808C240.447 177.413 249.803 170.995 251.304 154.295C264.875 149.058 280.138 155.827 285.375 169.399C286.205 171.506 286.748 173.709 287.004 175.945Z" fill="black"/>
<path d="M229.526 180.543C229.526 180.543 259.766 177.254 249.356 131.176C249.356 131.176 264.3 144.875 273.592 152.475C282.884 160.074 299.457 170.58 299.457 170.58C299.457 170.58 289.558 179.84 229.526 180.543Z" fill="#96CEA7"/>
<path opacity="0.1" d="M229.526 180.543C229.526 180.543 259.766 177.254 249.356 131.176C249.356 131.176 264.3 144.875 273.592 152.475C282.884 160.074 299.457 170.58 299.457 170.58C299.457 170.58 289.558 179.84 229.526 180.543Z" fill="white"/>
<path d="M148.739 205.162C163.288 205.162 175.082 193.368 175.082 178.819C175.082 164.269 163.288 152.475 148.739 152.475C134.189 152.475 122.395 164.269 122.395 178.819C122.395 193.368 134.189 205.162 148.739 205.162Z" fill="#65617D"/>
<path d="M148.739 193.188C156.675 193.188 163.108 186.754 163.108 178.819C163.108 170.883 156.675 164.449 148.739 164.449C140.803 164.449 134.369 170.883 134.369 178.819C134.369 186.754 140.803 193.188 148.739 193.188Z" fill="#DCE0ED"/>
<path d="M148.739 187.44C153.5 187.44 157.36 183.58 157.36 178.819C157.36 174.057 153.5 170.197 148.739 170.197C143.977 170.197 140.117 174.057 140.117 178.819C140.117 183.58 143.977 187.44 148.739 187.44Z" fill="#65617D"/>
<path opacity="0.1" d="M178.276 170.899C178.276 153.88 164.768 140.085 148.1 140.085C131.432 140.085 117.924 153.88 117.924 170.899C117.924 171.634 117.956 172.336 117.988 173.039H178.18C178.244 172.336 178.276 171.634 178.276 170.899Z" fill="black"/>
<path d="M177.158 170.389C177.158 154.007 164.162 140.724 148.1 140.724C132.038 140.724 119.042 154.007 119.042 170.389C119.042 171.091 119.074 171.762 119.106 172.432H177.094C177.126 171.762 177.158 171.091 177.158 170.389Z" fill="#96CEA7"/>
<path opacity="0.1" d="M177.158 170.389C177.158 170.868 177.158 171.346 177.126 171.794C177.126 172.017 177.094 172.209 177.094 172.432H119.106C119.106 172.209 119.074 172.017 119.074 171.794C119.042 171.315 119.042 170.836 119.042 170.389C119.042 154.007 132.038 140.724 148.1 140.724C164.162 140.724 177.158 154.007 177.158 170.389Z" fill="white"/>
<path opacity="0.1" d="M177.126 171.825C177.126 172.049 177.094 172.241 177.094 172.464H119.106C119.106 172.241 119.074 172.049 119.074 171.825H177.126Z" fill="black"/>
<path opacity="0.1" d="M109.718 173.071H180.958C182.842 173.071 184.375 174.604 184.375 176.488C184.375 178.371 182.842 179.904 180.958 179.904H109.718C107.834 179.904 106.301 178.371 106.301 176.488C106.333 174.604 107.834 173.071 109.718 173.071Z" fill="black"/>
<path d="M109.718 172.432H180.958C182.842 172.432 184.375 173.965 184.375 175.849C184.375 177.733 182.842 179.266 180.958 179.266H109.718C107.834 179.266 106.301 177.733 106.301 175.849C106.333 173.965 107.834 172.432 109.718 172.432Z" fill="#DCE0ED"/>
<path opacity="0.1" d="M255.822 128.027C257.751 127.155 257.535 122.514 255.341 117.661C253.146 112.808 249.804 109.581 247.876 110.453C245.948 111.325 246.163 115.966 248.358 120.819C250.552 125.672 253.894 128.899 255.822 128.027Z" fill="black"/>
<path d="M256.142 127.708C258.07 126.836 257.855 122.195 255.66 117.342C253.466 112.489 250.124 109.261 248.196 110.133C246.267 111.005 246.483 115.646 248.677 120.499C250.872 125.352 254.214 128.579 256.142 127.708Z" fill="#DCE0ED"/>
<path opacity="0.1" d="M243.097 98.3821V103.395H233.358C232.464 103.395 231.538 103.332 230.644 103.172C229.718 100.809 229.111 99.4359 229.111 99.4359L237.669 98.7973L243.097 98.3821Z" fill="black"/>
<path d="M243.097 102.725H233.358C224.8 102.725 217.871 96.3385 217.871 88.4194V87.1102C217.871 79.223 224.8 72.8047 233.358 72.8047L243.097 73.6988V102.725Z" fill="#96CEA7"/>
<path d="M227.036 81.2666C227.036 81.2666 232.879 84.3959 229.526 89.6647C229.526 89.6647 225.407 96.4023 218.957 95.7637L216.594 81.2666C216.594 81.2666 224.321 80.5641 227.036 81.2666Z" fill="#96CEA7"/>
<path opacity="0.1" d="M224.8 80.9793C226.684 81.0431 228.409 81.9692 229.526 83.47C230.58 84.9069 231.187 87.0144 229.494 89.6328C229.494 89.6328 225.375 96.3704 218.925 95.7318L216.562 81.2347C216.594 81.2667 221.448 80.8196 224.8 80.9793Z" fill="black"/>
<path opacity="0.1" d="M242.778 73.6988H244.662C247.951 73.6988 250.601 76.3491 250.601 79.6381V96.7855C250.601 100.075 247.951 102.725 244.662 102.725H242.778V73.6988Z" fill="black"/>
<path d="M243.097 73.6988H244.981C248.27 73.6988 250.921 76.3491 250.921 79.6381V96.7855C250.921 100.075 248.27 102.725 244.981 102.725H243.097V73.6988Z" fill="#DCE0ED"/>
<path d="M173.933 110.995C173.933 110.995 175.434 111.538 177.445 112.304C180.639 113.518 185.141 115.338 186.706 116.296C188.27 117.254 194.114 118.882 198.457 120.032C201.682 120.862 205.035 121.277 208.387 121.245C211.772 121.213 215.891 121.181 217.041 121.181C217.233 121.181 217.424 121.181 217.648 121.213C218.829 121.405 218.797 122.203 218.765 122.395V122.427C211.74 126.674 203.215 145.737 202.704 148.93C202.288 151.325 198.808 157.967 197.052 161.128C196.477 162.182 196.094 162.853 196.094 162.853L198.233 165.311L204.396 168.089L210.24 170.644C210.24 170.644 216.402 170.963 216.53 170.644C216.658 170.325 216.626 167.036 216.626 167.036C215.86 166.557 215.157 166.014 214.486 165.407C213.081 164.162 211.74 162.821 210.559 161.384C207.142 157.328 213.976 149.569 213.976 149.569L227.068 132.549C227.068 132.549 228.121 130.633 233.231 122.97C238.34 115.306 233.231 111.155 233.231 111.155L224.226 107.419C208.643 101.575 189.803 96.9133 189.803 96.9133L189.548 96.8813L185.556 96.3704L173.933 110.995Z" fill="#EFB7B9"/>
<path d="M214.135 168.153C214.135 168.153 215.253 169.463 214.423 169.59C213.592 169.718 211.389 169.239 211.389 169.239L197.467 161.895C197.467 161.895 195.934 160.809 195.583 162.948C195.232 165.056 194.976 164.864 194.976 164.864C194.976 164.864 193.124 168.824 194.976 169.622C196.828 170.42 207.845 173.678 207.845 173.678C207.845 173.678 223.843 177.318 225.375 173.103C226.908 168.888 222.661 169.622 222.661 169.622C222.661 169.622 217.392 168.345 215.604 165.79C215.572 165.79 212.954 166.493 214.135 168.153Z" fill="#444053"/>
<path opacity="0.05" d="M233.23 111.187L224.226 107.451C208.643 101.607 189.803 96.9452 189.803 96.9452L189.548 96.9133L185.556 96.4023L173.933 110.963C173.933 110.963 175.434 111.506 177.445 112.272C180.639 113.486 185.141 115.306 186.706 116.264C188.27 117.222 194.114 118.85 198.457 120C201.682 120.83 205.035 121.245 208.387 121.213C211.772 121.181 215.891 121.15 217.041 121.15C217.233 121.15 217.424 121.15 217.648 121.181C218.829 121.373 218.797 122.171 218.765 122.363V122.395C211.74 126.642 203.215 145.705 202.704 148.898C202.288 151.293 198.808 157.935 197.052 161.096L196.828 161.511C196.349 161.448 195.774 161.607 195.583 162.821C195.232 164.928 194.976 164.737 194.976 164.737C194.976 164.737 193.124 168.696 194.976 169.494C196.828 170.293 207.845 173.55 207.845 173.55C207.845 173.55 223.843 177.19 225.375 172.975C226.908 168.76 222.661 169.494 222.661 169.494C222.661 169.494 217.392 168.217 215.604 165.663C215.444 165.694 215.285 165.758 215.125 165.822C214.934 165.663 214.742 165.503 214.518 165.311C213.113 164.066 211.772 162.725 210.591 161.288C207.174 157.233 214.007 149.473 214.007 149.473L227.1 132.453C227.1 132.453 228.153 130.538 233.262 122.874C238.372 115.21 233.23 111.187 233.23 111.187Z" fill="black"/>
<path d="M163.204 39.7551L163.683 40.3618L163.938 40.7131L165.631 42.8525C165.631 42.8525 169.686 44.1617 173.199 44.992C176.871 45.8541 180.032 46.2373 177.541 44.1617C175.977 42.8845 175.881 40.7131 176.456 38.3821C176.935 36.5939 177.605 34.8696 178.499 33.241C178.627 32.9856 178.755 32.7621 178.882 32.5385C179.681 31.0697 180.543 29.6647 181.501 28.2916C179.234 26.7269 176.871 25.2581 174.444 23.9489C171.506 22.4481 169.111 21.7775 170.644 24.7791C171.634 26.695 171.315 28.8344 170.389 30.91C170.325 31.0697 170.229 31.2293 170.165 31.389C169.335 32.9856 168.345 34.4864 167.163 35.8275C165.95 37.2325 164.641 38.5417 163.204 39.7551Z" fill="#EFB7B9"/>
<path d="M183.449 88.4194L185.62 90.3992L187.696 98.446H184.215L180.351 93.4327L183.449 88.4194Z" fill="#444053"/>
<path opacity="0.1" d="M180.351 93.4327L182.682 96.4343L184.215 98.446H187.696L187.344 97.041L185.812 91.1975L185.62 90.3992L183.449 88.4194L180.479 93.2092L180.351 93.4327Z" fill="black"/>
<path opacity="0.1" d="M180.351 93.4327L182.682 96.4343L184.215 98.446H187.696L187.344 97.041L185.812 91.1975L185.62 90.3992L183.449 88.4194L180.479 93.2092L180.351 93.4327Z" fill="black"/>
<path d="M168.76 114.604C168.76 114.604 170.261 115.146 172.273 115.913C175.466 117.126 179.968 118.946 181.533 119.904C183.097 120.862 188.941 122.491 193.284 123.64C196.509 124.47 199.862 124.886 203.215 124.854C206.599 124.822 210.719 124.79 211.868 124.79C212.06 124.79 212.251 124.79 212.475 124.822C213.656 125.013 213.624 125.812 213.592 126.003V126.035C206.567 130.282 198.042 149.345 197.531 152.539C197.116 154.933 193.635 161.575 191.879 164.737C191.304 165.79 190.921 166.461 190.921 166.461L193.06 168.92L199.223 171.698L205.067 174.252C205.067 174.252 211.229 174.572 211.357 174.252C211.485 173.933 211.453 170.644 211.453 170.644C210.687 170.165 209.984 169.622 209.314 169.015C207.909 167.77 206.567 166.429 205.386 164.992C201.969 160.937 208.803 153.177 208.803 153.177L221.895 136.158C221.895 136.158 222.948 134.242 228.058 126.578C233.167 118.914 228.058 114.763 228.058 114.763L219.851 110.069C207.078 102.31 189.101 97.8393 189.101 97.8393L188.845 97.8073L184.854 97.2964L168.76 114.604Z" fill="#EFB7B9"/>
<path opacity="0.1" d="M190.889 166.525L193.028 168.983L199.191 171.762L205.034 174.316C205.034 174.316 211.197 174.635 211.325 174.316C211.453 173.997 211.421 170.708 211.421 170.708C210.654 170.229 209.952 169.686 209.281 169.079C208.611 169.431 207.876 170.101 208.579 171.123C208.579 171.123 209.697 172.432 208.866 172.56C208.036 172.688 205.833 172.209 205.833 172.209L191.91 164.864L191.815 164.8C191.272 165.854 190.889 166.525 190.889 166.525Z" fill="black"/>
<path d="M208.93 171.762C208.93 171.762 210.048 173.071 209.218 173.199C208.387 173.326 206.184 172.847 206.184 172.847L192.262 165.503C192.262 165.503 190.729 164.417 190.378 166.557C190.027 168.696 189.771 168.473 189.771 168.473C189.771 168.473 187.919 172.432 189.771 173.23C191.623 174.029 202.64 177.286 202.64 177.286C202.64 177.286 218.638 180.926 220.17 176.711C221.703 172.496 217.456 173.23 217.456 173.23C217.456 173.23 212.187 171.953 210.399 169.399C210.367 169.399 207.781 170.101 208.93 171.762Z" fill="#444053"/>
<path opacity="0.1" d="M169.59 30.0798C171.442 31.3571 174.252 33.3688 176.647 33.3688C177.254 33.3688 177.893 33.305 178.499 33.2092C179.393 31.4848 180.383 29.8244 181.501 28.2597C181.501 28.2597 167.451 18.4566 170.644 24.7472C171.73 26.8547 170.676 27.8765 169.59 30.0798Z" fill="black"/>
<path d="M165.184 21.2347C165.184 25.1304 167.163 28.7706 170.42 30.8781C170.772 31.1016 171.155 31.3252 171.538 31.5168C177.222 34.3587 184.119 32.0277 186.961 26.3757C189.803 20.6919 187.472 13.7946 181.82 10.9526C176.136 8.11069 169.239 10.4417 166.397 16.0937C165.599 17.6903 165.184 19.4465 165.184 21.2347Z" fill="#EFB7B9"/>
<path opacity="0.1" d="M168.76 114.604C168.76 114.604 170.261 115.146 172.273 115.913C173.55 114.795 174.827 113.741 175.37 113.518C176.551 113.103 180.383 110.868 180.255 110.229C180.128 109.59 181.852 107.131 183.353 106.716C184.854 106.301 183.992 104.066 183.992 104.066C183.992 104.066 186.865 103.012 187.568 101.511C188.27 100.011 190.474 98.0947 189.739 98.2225C189.42 98.1586 189.101 98.0628 188.845 97.8712L184.854 97.3603L168.76 114.604Z" fill="black"/>
<path d="M160.011 110.772C160.011 110.772 164.896 114.827 165.12 116.615C165.343 118.403 168.632 118.308 168.632 118.308C168.632 118.308 173.518 113.614 174.699 113.198C175.881 112.783 179.713 110.548 179.585 109.91C179.457 109.271 181.181 106.812 182.682 106.397C184.183 105.982 183.321 103.747 183.321 103.747C183.321 103.747 186.195 102.693 186.897 101.192C187.6 99.6913 189.803 97.7754 189.069 97.9031C188.845 97.9351 188.174 97.5838 187.312 97.0729C186.259 96.4343 184.917 95.5721 183.832 94.8377C182.682 94.0713 181.82 93.4327 181.82 93.4327C181.82 93.4327 181.309 93.3369 180.447 93.2091C175.817 92.5386 160.713 90.8143 157.232 96.4023C156.754 97.1368 156.402 97.9351 156.179 98.7972C154.646 104.737 160.011 110.772 160.011 110.772Z" fill="#444053"/>
<path opacity="0.1" d="M165.152 97.8392C165.152 97.8392 160.138 100.649 158.286 100.649C156.434 100.649 165.152 97.8392 165.152 97.8392Z" fill="black"/>
<path opacity="0.1" d="M168.473 100.011C168.473 100.011 161.032 102.501 161.032 104.481C161.032 106.461 160.33 99.2123 168.473 100.011Z" fill="black"/>
<path opacity="0.1" d="M186.323 88.7386L186.227 88.8983C186.259 88.8344 186.291 88.8025 186.323 88.7386Z" fill="black"/>
<path opacity="0.1" d="M163.204 39.7552L163.683 40.3619L163.938 40.7132L165.631 42.8526C165.631 42.8526 169.686 44.1618 173.199 44.992C176.871 45.8542 180.032 46.2374 177.541 44.1618C175.977 42.8845 175.881 40.7132 176.456 38.3821L176.36 38.2225C176.36 38.2225 176.456 40.3619 175.21 40.4258C173.486 40.4896 173.454 39.9149 171.889 39.2443C169.846 38.3821 167.77 36.9452 167.163 35.8276C165.95 37.2326 164.641 38.5418 163.204 39.7552Z" fill="black"/>
<path opacity="0.1" d="M156.211 98.7653C157.073 99.1485 158.063 99.1485 158.957 98.8292C162.246 97.7754 167.483 95.189 169.91 96.3066C171.857 97.2007 179.777 97.1687 182.682 96.4343C183.417 96.2427 183.832 96.0192 183.768 95.7318C183.736 95.4125 183.768 95.0932 183.864 94.8058C184.215 93.7201 185.109 92.2193 185.812 91.1655L185.588 90.3672L183.417 88.3875L180.447 93.1772C175.817 92.5067 160.713 90.7823 157.233 96.3704C156.786 97.1368 156.434 97.9351 156.211 98.7653Z" fill="black"/>
<path d="M154.071 96.2746C154.071 96.2746 155.349 99.2443 158.638 98.1905C161.927 97.1368 167.163 94.5503 169.59 95.6679C172.017 96.7855 183.736 96.4662 183.417 95.0931C183.097 93.7201 186.291 89.3454 186.291 89.3454C186.291 89.3454 184.534 89.0261 183.481 83.3422C183.321 82.512 183.161 81.554 183.066 80.5003C182.81 78.297 182.746 76.0937 182.874 73.8904C183.289 67.7275 185.46 65.2049 185.46 65.2049C185.46 65.2049 188.43 61.7882 185.876 57.1261C184.534 54.6674 179.138 47.8659 179.074 44.8324C179.01 42.0862 176.36 38.893 176.36 38.893C176.36 38.893 176.456 41.0325 175.21 41.0963C173.486 41.1602 173.454 40.5854 171.889 39.9148C169.558 38.925 167.163 37.2006 167.004 36.0511C167.004 36.0511 157.233 35.5721 155.125 45.471C153.018 55.3699 153.752 60.7983 154.071 61.9798C154.391 63.1613 157.169 78.265 154.934 84.6514C152.698 91.0378 154.071 96.2746 154.071 96.2746Z" fill="#FFBC27"/>
<path opacity="0.1" d="M169.973 78.9037C171.73 81.8733 174.093 84.4598 176.903 86.4715C178.787 86.4715 180.639 86.5992 182.491 86.8547C182.331 86.0245 182.171 85.0665 182.076 84.0128C181.82 81.8095 181.756 79.6062 181.884 77.4029C181.277 77.0835 180.798 76.5407 180.639 75.8701C180.096 74.05 175.37 65.4284 175.37 65.4284C175.37 65.4284 164.258 62.5545 163.874 65.4284C163.459 68.2384 167.195 74.1139 169.973 78.9037Z" fill="black"/>
<path d="M173.646 60C173.646 60 180.351 72.677 180.862 74.4971C181.15 75.5189 182.044 76.2533 183.129 76.3172C183.129 76.3172 189.803 77.9138 191.4 78.1373C192.996 78.3608 206.855 79.5104 206.855 79.5104C206.855 79.5104 210.367 79.6062 210.782 78.3289C211.166 77.1474 217.967 71.0165 221.895 76.3811C222.629 77.371 222.853 78.6802 222.469 79.8617C221.735 82.1607 220.266 85.801 218.67 83.5338C216.434 80.3406 213.848 81.2347 213.848 82.9271C213.848 84.6195 210.271 84.0128 209.09 84.2363C208.451 84.364 206.248 84.9388 204.364 85.4497C202.161 86.0564 199.894 86.4077 197.595 86.5673C193.827 86.8228 188.27 87.0144 186.291 86.28C183.928 85.3859 179.777 85.1623 177.988 85.1304C177.414 85.1304 176.839 84.9069 176.36 84.5556C173.901 82.6397 171.826 80.2448 170.229 77.5626C167.451 72.7728 161.767 62.842 162.15 59.9681C162.533 57.0942 173.646 60 173.646 60Z" fill="#EFB7B9"/>
<path opacity="0.1" d="M171.41 42.4374C171.41 42.4374 175.019 48.4087 176.679 52.6556C178.34 56.9026 180.351 64.3747 180.351 64.3747L170.357 63.1932L169.494 61.8201C169.494 61.8201 162.342 66.2906 163.204 68.2065C164.066 70.1224 161.288 65.3326 161.511 59.9042C161.735 54.4758 160.745 44.8004 161.511 42.4374C162.278 40.0745 169.079 40.6173 171.41 42.4374Z" fill="black"/>
<path d="M161.543 59.2337C161.32 64.6621 164.098 69.4519 163.236 67.5359C162.374 65.62 169.526 61.1496 169.526 61.1496L170.357 62.5226L180.351 63.7041C180.351 63.7041 178.339 56.264 176.679 51.9851C175.689 49.5902 174.54 47.2273 173.262 44.9601C172.24 43.1081 171.442 41.7669 171.442 41.7669C170.069 40.7132 167.131 40.0745 164.8 40.2342C164.449 40.2661 164.066 40.298 163.715 40.3619C162.757 40.5535 161.99 40.9048 161.639 41.4795C161.575 41.5753 161.543 41.6711 161.511 41.7669C160.745 44.1299 161.735 53.8052 161.543 59.2337Z" fill="#FF8A29"/>
<path opacity="0.1" d="M157.073 74.1139C157.073 74.1139 161.32 79.9574 162.597 80.1171C162.565 80.1171 157.137 78.9037 157.073 74.1139Z" fill="black"/>
<path opacity="0.1" d="M157.073 82.4162C157.073 82.4162 165.056 90.495 167.61 90.5588C170.165 90.6227 157.073 82.4162 157.073 82.4162Z" fill="black"/>
<path opacity="0.1" d="M157.073 85.769C157.073 85.769 162.182 91.7722 162.501 91.7722C162.821 91.7722 156.977 89.6967 157.073 85.769Z" fill="black"/>
<path opacity="0.1" d="M161.639 41.5115C162.469 41.3838 163.268 41.1283 163.97 40.7132C164.258 40.5535 164.513 40.3939 164.768 40.2342C165.822 39.5317 166.78 38.7334 167.674 37.8393C169.143 36.4024 170.612 34.8377 171.219 32.8899C171.346 32.4428 171.442 31.9638 171.506 31.5168C171.857 29.058 171.57 26.3438 173.326 24.6834C173.646 24.3641 174.029 24.1086 174.444 23.917C176.935 22.7355 180.543 23.5019 182.395 21.3625C183.576 20.0213 183.544 18.1373 184.47 16.6685C184.854 16.0298 185.588 15.487 186.227 14.8803C182.746 9.5796 175.625 8.11074 170.293 11.5913C164.992 15.0719 163.523 22.1927 167.004 27.5253C167.866 28.8665 169.015 30.016 170.357 30.8782C170.293 31.0378 170.197 31.1975 170.133 31.3571C167.93 35.8276 163.172 39.7552 163.172 39.7552L163.651 40.3619C162.725 40.5855 161.99 40.9367 161.639 41.5115Z" fill="black"/>
<path d="M181.788 21.0751C179.617 23.5657 175.082 22.0969 172.688 24.396C170.612 26.3757 171.442 29.8563 170.58 32.6025C169.973 34.5503 168.504 36.115 167.036 37.5519C164.896 39.6275 162.15 41.735 159.244 41.1602C157.52 40.8089 155.796 39.4997 154.135 40.1064C153.305 40.3938 152.698 41.1283 152.091 41.7669C149.984 43.9383 147.238 45.3433 144.236 45.8223C143.661 45.95 143.023 45.918 142.448 45.7265C141.554 45.3752 141.075 44.3853 140.245 43.8744C138.648 42.8526 136.605 43.9063 134.944 44.8004C125.556 49.8776 114.476 50.6759 104.449 47.0037L107.036 45.7265C106.493 44.6088 104.992 44.3534 104.066 43.5232C102.118 41.8308 103.268 38.446 105.311 36.9133C107.355 35.3805 110.037 34.8377 112.177 33.3688C112.624 33.0814 113.039 32.6983 113.103 32.1554C113.103 31.7722 112.975 31.389 112.751 31.1017C111.602 29.09 110.357 26.9505 110.612 24.6514C110.995 21.1389 114.827 18.9675 118.371 18.744C121.916 18.5205 125.396 19.5423 128.909 19.6062C130.186 19.6381 131.527 19.5104 132.613 18.8398C134.146 17.9138 134.912 16.1575 135.838 14.6567C137.499 11.9425 139.862 9.77116 142.703 8.33423C145.897 6.7057 149.505 6.16286 152.826 4.82172C156.211 3.44865 159.308 1.30922 162.853 0.447055C167.994 -0.83022 173.518 0.830237 177.956 3.73604C180.096 5.14104 186.929 9.57957 186.897 12.4215C186.865 14.1139 184.662 15.0399 183.832 16.3491C182.938 17.8499 182.97 19.702 181.788 21.0751Z" fill="#965D7B"/>
<g opacity="0.1">
<path opacity="0.1" d="M112.464 29.505C112.688 29.8244 112.815 30.1756 112.815 30.5588C112.815 30.6865 112.751 30.8142 112.688 30.942C111.761 29.2815 110.772 27.5253 110.612 25.6732C111.059 27.0144 111.793 28.2916 112.464 29.505Z" fill="black"/>
<path opacity="0.1" d="M103.779 41.9266C104.737 42.7568 106.205 42.9803 106.748 44.1299L105.822 44.5769C105.215 44.2895 104.609 43.9383 104.066 43.5232C103.363 42.8845 102.98 41.9904 103.076 41.0325C103.268 41.3837 103.491 41.6711 103.779 41.9266Z" fill="black"/>
<path opacity="0.1" d="M134.657 43.2038C136.317 42.2778 138.361 41.256 139.957 42.2778C140.756 42.7887 141.267 43.7786 142.161 44.1298C142.735 44.3214 143.342 44.3534 143.949 44.2256C146.919 43.7467 149.697 42.3097 151.804 40.1703C152.411 39.5317 153.018 38.7972 153.848 38.5098C155.508 37.9031 157.201 39.2123 158.957 39.5636C161.895 40.1703 164.609 38.0309 166.748 35.9553C168.217 34.5183 169.686 32.9537 170.293 31.0058C171.155 28.2597 170.325 24.7791 172.4 22.7994C174.795 20.5322 179.329 21.9691 181.501 19.4784C182.682 18.1373 182.65 16.2533 183.576 14.7844C184.343 13.5391 186.322 12.6769 186.61 11.1761C186.833 11.5593 186.961 12.0064 186.961 12.4534C186.929 14.1458 184.726 15.0718 183.896 16.381C183.002 17.8499 183.002 19.7339 181.82 21.075C179.649 23.5657 175.114 22.0969 172.72 24.3959C170.644 26.3757 171.474 29.8563 170.612 32.6024C170.005 34.5503 168.536 36.1149 167.068 37.5519C164.928 39.6274 162.182 41.735 159.276 41.1602C157.552 40.8089 155.828 39.4997 154.167 40.1064C153.337 40.3938 152.73 41.1283 152.123 41.7669C150.016 43.9383 147.27 45.3433 144.268 45.8222C143.693 45.95 143.055 45.918 142.48 45.7264C141.586 45.3752 141.107 44.3853 140.277 43.8744C138.68 42.8526 136.636 43.9063 134.976 44.8004C125.588 49.8776 114.508 50.6759 104.481 47.0037L106.269 46.1096C115.753 48.9516 125.971 47.8978 134.657 43.2038Z" fill="black"/>
</g>
<path opacity="0.1" d="M213.56 126.035L216.243 124.726V124.215C216.243 124.023 214.103 124.439 212.443 124.822C213.656 125.045 213.592 125.844 213.56 126.035Z" fill="black"/>
<path d="M215.923 96.6578C219.503 96.6578 222.405 93.1409 222.405 88.8026C222.405 84.4642 219.503 80.9473 215.923 80.9473C212.343 80.9473 209.441 84.4642 209.441 88.8026C209.441 93.1409 212.343 96.6578 215.923 96.6578Z" fill="#96CEA7"/>
<path d="M153.656 78.5524L143.246 88.8345L109.047 88.2278L118.467 78.5524H153.656Z" fill="#DDA2A6"/>
<path d="M153.656 113.646V78.5524L143.246 88.8345V123.161L153.656 113.646Z" fill="#B77B7F"/>
<path d="M109.047 88.2278V123.161H143.246V88.8345L109.047 88.2278Z" fill="#DDA2A6"/>
<path opacity="0.3" d="M109.047 88.2278V123.161H143.246V88.8345L109.047 88.2278Z" fill="white"/>
<path d="M140.468 98.446L115.051 94.0714L111.73 110.772L137.914 115.562L140.468 98.446Z" fill="#DCE0ED"/>
<path d="M135.455 102.342L118.34 99.6594L117.924 101.895L135.008 104.769L135.455 102.342Z" fill="#96CEA7"/>
<path d="M130.729 107.1L121.022 105.695L120.575 108.153L130.729 109.59V107.1Z" fill="#96CEA7"/>
<path d="M149.441 96.9771L148.962 83.1826L146.312 85.801L146.759 99.6594L149.441 96.9771Z" fill="#65617D"/>
<path d="M115.019 82.0969L147.877 82.5439L148.962 83.1825L146.312 85.801L145.386 85.2581L112.847 84.3321L115.019 82.0969Z" fill="#65617D"/>
</g>
<defs>
<clipPath id="clip0">
<rect width="300" height="207.398" fill="white"/>
</clipPath>
</defs>
</svg>
