<svg width="493" height="304" viewBox="0 0 493 304" fill="none" xmlns="http://www.w3.org/2000/svg">
<path fill-rule="evenodd" clip-rule="evenodd" d="M129.329 245.288C131.665 247.98 135.114 249.977 137.76 252.437C140.539 255.022 143.555 257.28 146.323 259.833C158.533 244.966 175.259 235.849 189.749 223.512C196.619 217.663 201.68 209.729 205.384 201.587C207.283 197.413 208.685 193.116 209.783 188.67C210.277 186.667 210.761 184.671 211.084 182.64C211.476 180.182 211.577 179.972 213.242 178.053C213.958 177.227 215.347 174.814 216.751 175.08C217.932 175.304 220.093 178.887 220.84 179.772C224.43 184.029 227.911 188.415 231.692 192.506C237.475 198.767 242.741 204.928 248.11 211.564C259.095 225.141 270.944 237.921 282.901 250.696C283.788 251.643 285.856 254.421 287.13 254.795C288.679 255.249 291.197 253.356 292.757 252.297C296.523 249.743 299.491 246.582 302.71 243.416C308.992 237.239 313.246 228.568 316.107 220.317C317.821 215.379 318.934 210.259 320.702 205.337C321.439 203.286 323.109 200.765 322.261 198.979C322.009 198.446 320.402 197.031 319.835 196.923C319.165 196.794 318.048 197.71 317.815 197.646C315.591 197.04 316.825 194.721 315.502 193.474C314.753 192.766 310.939 192.869 309.801 192.481C305.638 191.058 301.903 188.344 297.967 186.724C281.492 179.943 264.816 173.346 250.592 162.272C246.904 159.401 244.453 157.243 240.051 155.387C235.603 153.511 231.132 151.838 226.594 150.202C222.59 148.758 218.564 147.404 214.427 146.369C209.954 145.25 203.609 143.83 199.14 145.272C190.364 148.103 187.53 155.307 184.035 162.907C179.306 173.189 173.589 182.919 167.391 192.383C155.467 210.592 140.965 226.932 129.329 245.288Z" fill="#2B4151"/>
<path fill-rule="evenodd" clip-rule="evenodd" d="M393.639 84.3085C394.122 84.0643 397.892 85.5932 398.525 85.8271C401.053 86.7615 403.434 88.3142 405.816 89.5773C403.99 91.7903 402.165 94.0039 400.34 96.2174C398.551 91.8455 396.251 88.2379 393.639 84.3085ZM392.394 111.51C393.015 111.58 387.772 124.132 387.16 125.542C384.932 130.668 382.592 135.744 380.335 140.857C378.148 145.812 375.373 150.371 372.578 155C370.187 158.959 367.727 165.102 364.121 168.035C366.398 157.97 366.098 146.397 372.63 137.946C379.4 129.185 386.094 120.63 392.394 111.51ZM129.329 245.735C139.447 229.773 152.112 215.653 162.663 199.976C168.57 191.198 174.32 182.308 179.293 172.964C182.91 166.168 185.158 156.47 190.745 151.274C193.206 148.985 195.837 146.744 199.14 145.718C203.661 144.315 209.886 145.706 214.427 146.815C222.89 148.883 231.158 152.093 239.174 155.465C247.305 158.884 254.242 165.027 261.589 169.962C269.469 175.256 278 179.113 286.83 182.489C294.518 185.429 301.357 189.65 309.004 192.609C310.528 193.199 313.638 193.112 314.916 193.881C316.293 194.709 315.751 197.154 317.423 198.056C318.178 198.463 318.429 196.987 319.008 197.012C319.716 197.041 320.362 197.869 321.045 198.394C323.824 200.53 322.121 201.954 321.021 204.894C317.434 214.471 315.506 224.216 310.47 233.257C306.329 240.689 300.403 247.349 293.426 252.269C292.364 253.018 288.904 255.919 287.659 255.726C286.537 255.553 284.255 252.583 283.481 251.776C279.967 248.115 276.756 244.178 273.244 240.512C267.818 234.845 262.594 229.027 257.329 223.284C251.216 216.617 245.805 209.062 240.3 201.938C237.767 198.661 234.507 195.992 231.692 192.953C227.906 188.867 224.431 184.474 220.839 180.219C219.754 178.931 217.933 175.636 216.245 175.675C215.062 175.702 212.976 178.477 212.357 179.347C210.057 182.579 210.068 188.417 208.924 192.452C206.133 202.291 201.1 211.901 194.198 219.494C187.334 227.044 178.542 232.414 170.423 238.482C161.629 245.058 153.297 251.786 146.323 260.279C143.555 257.726 140.539 255.468 137.76 252.884C135.113 250.423 131.664 248.426 129.329 245.735ZM259.565 290.892C257.598 290.912 254.267 292.118 252.507 291.392C257.727 285.638 262.52 280.702 269.124 276.485C275.976 272.11 282.806 267.773 289.462 263.106C302.876 253.701 312.742 242.546 318.345 226.883C319.787 222.849 320.754 218.619 321.811 214.473C322.38 212.24 323.512 201.793 325.435 200.891C326.574 200.356 335.147 206.359 336.506 207.107C339.682 208.857 342.869 210.214 346.153 211.583C353.21 214.527 360.486 216.772 367.97 218.647C376.943 220.894 383.055 217.176 388.614 210.15C394.92 202.178 400.16 193.185 405.926 184.814C408.549 181.006 410.721 177.205 412.657 173.006C413.925 170.258 418.951 162.844 417.214 159.917C412.259 163.675 410.476 171.149 407.101 176.181C402.894 182.453 398.153 188.366 393.924 194.632C390.368 199.901 386.74 206.286 381.487 210.074C376.866 213.405 372.476 212.381 367.502 210.884C361.475 209.069 355.227 208.175 349.32 205.925C342.927 203.489 336.879 200.035 330.642 197.218C327.735 195.905 324.253 195.158 321.513 193.521C319.152 192.11 319.504 191.365 319.331 188.361C319.128 184.857 318.895 181.35 318.739 177.842C318.635 175.486 319.914 172.29 319.046 170.531C326.127 171.754 333.047 173.392 340.078 174.841C343.928 175.634 347.64 176.615 351.529 177.239C353.011 177.476 355.038 177.469 356.365 178.113C357.424 177.81 357.964 178.002 357.985 178.69C358.035 179.064 358.115 179.432 358.226 179.794C360.397 180.778 361.66 178.668 363.543 176.643C365.866 174.145 367.606 171.331 369.311 168.395C373.123 161.831 377.517 155.658 381.044 148.909C384.639 142.029 387.559 134.663 390.608 127.526C393.404 120.977 395.194 113.895 398.285 107.502C399.664 104.648 401.411 102.288 403.452 99.877C405.136 97.8875 407.727 93.5959 410.242 92.682C410.907 92.4404 412.649 92.8464 413.404 92.7928C414.91 92.6856 416.252 92.135 417.793 92.2555C421.129 92.5156 424.766 94.6174 427.432 96.4652C425.709 97.9952 421.399 99.8548 424.495 102.611C427.499 105.286 429.159 100.487 430.305 98.3841C435.703 102.8 434.923 108.89 435.547 115.13C435.872 118.387 436.729 121.596 437.282 124.805C437.68 127.114 437.401 129.503 437.515 131.86C437.805 137.852 438.409 143.587 438.381 149.495C438.349 155.809 437.917 161.907 437.41 168.176C436.556 178.73 434.6 189.288 432.922 199.758C431.979 205.644 430.687 211.362 429.433 217.152C428.01 223.724 425.378 229.948 423.902 236.503C422.397 234.598 421.266 234.588 418.833 234.841C416.962 235.035 415.705 234.592 415.814 237.179C415.885 238.857 417.371 240.139 419.016 240.432C421.16 240.814 421.889 239.748 422.994 238.13C423.252 241.194 421.184 244.398 420.366 247.39C419.592 250.226 419.079 253.006 417.778 255.72C416.508 258.368 415.421 260.98 414.137 263.602C413.546 264.809 412.992 266.034 412.394 267.237C412.092 267.847 411.735 268.686 411.284 269.2C410.225 270.404 410.393 269.821 409.154 270.507C406.454 272.001 407.468 271.628 407.405 274.714C407.343 277.758 405.776 279.994 403.264 281.705C397.933 285.336 392.676 286.345 386.616 288.18C380.969 289.889 375.022 291.356 369.043 291.322C361.72 291.282 354.494 290.325 347.172 290.228C339.093 290.121 330.936 290.165 322.874 290.443C319.553 290.558 316.469 290.705 313.262 291.55C309.539 292.532 305.937 292.142 302.099 291.993C293.912 291.676 285.442 291.045 277.362 290.988C271.543 290.947 265.405 290.543 259.565 290.892ZM47.2595 294.054C45.804 294.82 42.5412 294.506 41.0779 294.293C38.5003 293.919 38.2242 292.901 36.5886 290.611C33.7737 286.667 31.4882 282.891 29.832 278.323C26.6623 269.581 25.3681 260.637 23.9766 251.492C22.4301 241.33 25.2543 230.797 26.2647 220.704C26.4969 218.389 26.8143 216.094 27.1815 213.796C27.4012 212.423 27.4586 207.749 28.3661 206.559C30.1096 204.274 38.2174 206.117 41.4052 206.324C50.303 206.903 59.2593 207.039 68.153 207.139C72.8951 207.193 77.6636 207.391 82.3586 207.427C84.5149 207.444 86.623 207.338 88.787 207.128C89.5109 207.059 90.2177 206.893 90.9468 206.853C93.4432 206.715 93.2555 206.355 93.9008 208.557C95.0312 212.415 94.1615 217.324 94.4583 221.329C94.8554 226.68 95.0699 232.107 94.9717 237.47C94.8807 242.425 95.0503 247.37 94.8647 252.336C94.7871 254.393 94.5616 256.07 94.0172 258.034C93.4013 260.255 92.724 265.443 91.1903 266.98C91.0161 267.155 89.7125 266.747 89.3666 267.183C88.8335 267.854 88.9312 269.274 88.5651 269.708C87.3805 271.112 84.9321 271.224 83.156 271.855C78.2825 273.586 73.8119 275.466 69.2187 277.8C65.1147 279.886 58.4977 281.661 56.0302 285.776C54.8988 287.663 54.7463 290.15 53.7059 292.096C52.5213 294.314 54.8916 293.155 51.9892 294.054C50.6821 294.459 48.5993 294.054 47.2595 294.054ZM479.926 268.978C480.295 274.098 483.19 278.975 484.198 284.009C484.669 286.366 485.469 288.683 486.024 291.027C486.555 293.275 488.476 295.937 488.281 298.161C481.193 295.645 474.013 295.013 466.605 294.334C459.584 293.691 452.166 293.435 445.204 293.432C438.109 293.428 430.523 292.738 423.218 292.631C415.578 292.519 407.823 292.322 400.294 291.532C404.231 288.628 409.157 285.899 412.064 281.858C415.224 277.464 416.866 271.959 419.647 267.323C425.227 258.019 428.774 246.474 431.7 236.022C437.605 214.92 444.205 194.209 445.795 172.322C448.822 173.866 451.225 179.857 452.74 182.841C454.675 186.651 455.688 190.78 456.945 194.829C459.535 203.169 461.327 211.816 464.498 220.076C470.558 235.866 474.453 252.88 479.926 268.978ZM95.163 145.995C93.8522 155.433 91.1035 164.992 90.998 174.543C90.9747 176.645 91.332 178.978 90.8925 181.05C90.423 183.262 88.8961 185.217 88.0144 187.32C86.6152 190.657 83.0717 197.497 86.4891 200.324C86.5584 197.641 89.0233 194.233 90.2648 191.887C92.1361 188.352 94.5948 185.119 96.6233 181.671C100.869 174.455 105.628 167.393 111.1 161.031C116.43 154.834 122.573 149.337 128.225 143.436C129.923 141.662 143.546 124.597 144.087 124.836C139.862 141.07 132.678 155.195 122.848 168.788C118.029 175.451 112.244 179.836 106.377 185.481C101.491 190.182 92.2824 195.209 93.9717 202.911C86.3339 202.18 78.7464 201.011 71.0393 201.011C72.3067 191.293 73.2773 181.729 75.54 172.171C78.1088 161.317 79.8488 150.139 82.0226 139.189C84.2408 128.011 88.0036 117.189 90.3444 106.031C92.5859 95.3474 94.5115 84.6824 96.1548 73.8795C97.5126 79.8654 97.0116 86.4401 97.4935 92.5476C97.9857 98.7875 97.9382 104.912 97.7743 111.189C97.4707 122.847 96.2235 134.365 95.163 145.995ZM62.067 90.4128C62.0241 85.4227 61.0536 80.5 60.7542 75.5217C60.6621 73.9943 59.1352 63.5736 60.5592 63.0296C61.7304 65.5734 62.0034 68.8285 63.0671 71.4975C64.1297 74.1638 65.5511 76.704 66.5708 79.3889C68.7797 85.2053 69.5419 91.7867 69.7798 97.9705C70.318 111.958 70.5962 125.913 69.6525 139.9C69.2482 145.895 68.938 151.901 69.0486 157.908C69.1701 164.518 70.1862 170.255 68.9524 176.81C67.7311 183.302 66.9637 189.767 66.5568 196.354C66.2714 200.977 66.1566 200.65 61.7294 200.324C58.5333 200.09 55.3058 200.34 52.105 200.195C53.6015 182.177 53.846 164.123 56.2365 146.174C57.4563 137.017 57.4888 127.728 59.0039 118.606C59.7567 114.074 61.02 109.634 61.7459 105.097C62.5251 100.226 62.1415 95.3216 62.067 90.4128ZM385.813 79.0741C377.29 79.8097 368.224 82.3483 359.488 80.6721C360.928 80.091 364.696 79.2895 363 76.996C361.276 74.664 358.37 77.6219 356.65 77.3165C355.59 77.1279 353.246 72.7116 352.593 71.7973C351.109 69.7192 350.93 69.3571 348.263 68.8244C345.678 68.3093 345.092 68.8672 344.765 66.3074C344.389 63.3639 345.411 60.0547 345.31 57.0447C345.092 50.5648 342.994 44.8823 341.041 38.7856C349.339 40.584 357.452 42.7166 365.936 43.8757C369.563 44.3713 375.205 45.5144 378.5 43.0582C379.357 42.4194 379.22 41.5571 379.921 40.8168C381.097 39.5748 383.278 38.2901 384.946 37.9362C395.208 35.7597 396.209 50.3345 391.066 55.7883C389.778 57.155 387.986 57.8298 386.667 59.0821C384.906 60.7522 384.762 62.5114 384.505 65.0608C384.023 69.8413 384.678 74.6403 386.725 79.0133L385.813 79.0741ZM261.277 147.881C258.248 148.454 255.086 148.323 252.049 148.812C250.969 148.986 247.734 149.592 246.785 148.963C245.336 148.003 244.821 144.483 244.136 142.844C242.932 139.961 241.227 137.446 240.078 134.51C235.383 122.519 231.005 110.48 225.326 98.8977C227.503 98.3341 229.174 98.312 231.367 98.0209C233.652 97.7175 235.724 96.3715 237.903 95.793C239.975 95.2433 242.146 95.3834 244.199 94.7441C245.33 94.3923 246.3 93.6098 247.415 93.3363C249.192 92.901 251.266 92.6465 252.323 93.8086C253.406 95.0007 253.787 98.2692 254.376 99.809C255.946 103.911 257.77 107.87 259.084 112.066C260.271 115.851 261.398 119.595 262.443 123.415C263.546 127.447 265.721 130.77 267.046 134.622C268.054 137.553 269.005 140.55 269.155 143.676C269.301 146.726 269.747 146.921 266.686 147.408C265.14 147.654 262.731 148.568 261.277 147.881ZM61.9497 290.635C61.1606 291.001 60.4165 290.952 59.7185 290.488C66.5594 287.61 73.2137 283.617 80.3503 281.642C87.0449 279.79 93.5518 277.577 100.001 275.296C105.242 273.443 109.953 272 114.691 268.738C117.567 266.758 120.122 264.531 122.099 261.638C124.299 258.416 124.788 253.831 127.171 250.93C130.387 254.449 134.166 257.114 137.971 259.91C139.287 260.878 142.445 262.986 142.895 264.483C143.464 266.372 141.941 268.18 141.188 270.091C139.26 274.987 138.318 279.88 137.272 284.971C136.853 287.01 135.947 290.077 134.265 290.932C132.734 291.709 128.298 291.144 126.392 291C116.449 290.249 106.682 289.481 96.6786 290.164C85.3588 290.937 73.24 291.472 61.9497 290.635ZM42.0893 199.912C40.2821 199.919 38.5168 199.693 36.7163 199.693C37.7557 194.859 35.3259 188.603 34.4645 183.777C33.5006 178.379 32.7669 172.797 32.1242 167.356C30.7694 155.894 30.1557 144.572 30.1381 133.027C30.1216 121.855 28.0801 111.646 25.2207 100.906C22.1503 89.3723 17.1223 78.9999 12.965 67.8765C17.5251 70.2781 20.0494 75.8978 22.4456 80.194C25.4746 85.6262 27.4922 91.6409 28.7291 97.7392C31.1154 109.503 33.7328 121.303 36.4862 133.048C39.3534 145.277 41.0391 157.618 44.3236 169.747C45.9255 175.662 48.1034 182.939 48.2244 189.038C48.2745 191.561 49.0378 196.846 47.8898 199.037C46.8164 201.087 44.443 200.122 42.0893 199.912ZM314.873 184.739C314.969 185.995 315.059 187.19 315.282 188.43C312.779 188.407 309.609 185.819 307.462 184.658C304.847 183.242 302.228 181.682 299.67 180.259C294.732 177.513 289.126 175.703 283.853 173.447C277.796 170.854 272.229 167.722 266.437 164.602C264.413 163.512 249.872 157.232 250.116 155.517C253.309 155.411 256.501 155.305 259.694 155.199C262.431 155.109 266.67 155.725 269.291 154.882C270.726 154.42 272.338 152.719 272.88 151.388C273.416 150.07 272.211 144.009 272.912 143.623C276.485 147.257 278.731 152.088 281.926 156.009C285.456 160.342 290.018 162.872 295.045 165.175C300.597 167.718 306.343 169.688 312.017 171.867C314.41 172.786 314.363 173.312 314.571 175.926C314.804 178.847 314.779 181.81 314.873 184.739ZM26.3723 294.649C20.354 295.293 14.1863 294.926 8.121 295.428C5.91412 295.61 2.85455 295.882 5.07486 298.833C6.47305 300.692 10.952 300.096 12.9836 300.224C18.4382 300.57 24.2134 300.384 29.6805 300.304C30.8315 300.287 32.1035 299.946 33.2669 300.023C34.6098 300.111 36.2179 301.073 37.4418 301.066C38.1962 301.061 38.4666 300.269 39.1171 300.196C40.5344 300.037 41.9512 299.921 43.3804 299.922C64.989 299.927 86.3008 299.494 107.856 299.471C118.163 299.46 128.635 299.283 138.938 298.801C141.101 298.699 153.422 299.14 153.081 295.259C152.905 293.26 148.884 292.978 147.417 292.766C146.329 292.609 145.201 292.634 144.112 292.576C141.217 292.421 139.949 293.115 140.56 289.96C142.876 277.992 147.026 268.101 155.893 259.496C163.143 252.46 171.873 246.078 180.086 240.202C190.057 233.067 198.146 225.564 204.066 214.646C207.523 208.271 210.417 201.753 212.193 194.704C212.833 192.168 212.848 189.283 213.631 186.839C214.233 184.956 215.607 183.639 216.415 181.689C226.336 198.197 239.485 212.009 251.541 226.893C257.302 234.004 263.873 240.758 270.756 246.945C272.798 248.781 274.704 250.697 276.611 252.673C278.205 254.326 280.737 255.796 282.084 257.631C283.375 259.39 283.057 259.306 281.091 260.704C278.492 262.551 275.628 264.085 272.989 265.886C268.769 268.765 264.164 271.198 260.391 274.663C256.311 278.41 252.746 282.75 249.18 286.975C246.803 289.792 243.684 293.405 243.086 296.966C242.888 298.144 242.136 301.058 243.129 301.921C243.977 302.658 243.891 302.378 244.944 301.928C246.324 301.339 246.729 299.987 248.415 299.342C252.727 297.694 257.944 298.26 262.431 298.24C266.919 298.22 271.445 298.722 275.931 298.704C286.175 298.662 296.201 299.488 306.442 299.932C317.32 300.403 328.33 299.272 339.171 299.433C347.204 299.551 355.45 298.953 363.704 299.398C367.95 299.626 372.119 299.097 376.259 299.037C381.679 298.96 387.245 299.694 392.712 299.799C401.684 299.971 410.547 299.97 419.574 300.185C438.991 300.648 458.304 301.126 477.732 301.433C480.324 301.474 483.161 301.386 485.722 301.677C488.44 301.986 487.037 302.561 488.902 303.536C494.124 306.265 492.918 296.15 492.793 294.16C492.121 283.499 489.405 273.043 486.14 262.921C483.043 253.321 480.528 243.274 477.905 233.467C475.034 222.733 471.293 212.438 467.895 201.81C464.414 190.919 461.58 179.604 455.258 169.949C453.818 167.751 452.33 165.385 450.013 163.998C447.417 162.444 447.305 163.352 447.307 160.508C447.309 157.829 447.143 154.25 447.778 151.694C448.351 149.385 448.263 150.754 449.554 149.095C450.604 147.746 451.704 146.824 452.458 145.186C457.089 149.864 467.689 147.395 472.163 144.027C477.64 139.904 481.811 132.948 483.339 126.323C484.567 121.003 483.061 110.863 477.151 108.305C474.269 107.058 463.687 106.115 463.263 102.05C463.045 99.9522 466.77 97.002 467.629 95.198C469.222 91.8558 470.751 87.4101 471.194 83.7464C472.058 76.5953 468.8 68.5988 463.609 63.7683C454.086 54.9069 437.332 50.3592 425.083 55.9815C427.671 46.1305 429.234 37.6322 427.93 27.3851C426.807 18.5571 421.579 13.618 414.385 9.22076C402.108 1.71621 385.414 -1.24584 371.377 0.936291C368.187 1.43237 365.126 2.49613 362.172 3.34251C357.882 4.57214 352.745 4.16261 348.694 6.16032C345.756 7.60837 343.526 10.4931 340.946 12.4193C337.934 14.6678 335.431 18.024 333.339 21.1277C328.863 27.7647 330.612 40.0827 334.358 46.745C335.161 48.174 336.153 49.3769 337.482 50.352C338.866 51.3669 340.975 51.6826 341.688 52.9988C343.514 56.3704 341.753 63.6694 341.509 67.3135C341.225 71.5449 343.373 74.7233 348.189 75.0607C350.975 75.2564 351.064 73.6461 352.398 76.9595C353.262 79.1071 354.048 81.4469 355.295 83.4157C357.868 87.4735 362.579 87.0773 366.871 86.9676C371.839 86.8398 376.733 86.0579 381.703 85.5644C380.391 89.755 376.797 93.0076 374.553 96.7408C371.519 101.79 369.692 105.976 369.199 111.859C368.82 116.378 369.637 119.948 372.742 123.312C374.027 124.704 375.166 124.773 374.847 126.379C374.653 127.359 372.952 128.975 372.35 129.757C370.758 131.826 368.909 133.725 367.508 135.934C362.116 144.435 360.523 157.394 360.51 167.29C360.51 167.743 360.266 168.708 360.468 169.178C360.617 169.524 361.748 170.622 361.764 170.716C361.986 171.989 360.741 174.17 358.787 174.386C356.734 174.612 352.976 172.906 351.067 172.345C348.012 171.448 344.898 170.785 341.85 169.864C336.927 168.376 332.026 167.189 327.022 166.022C324.76 165.496 322.486 165.057 320.217 164.565C317.633 164.004 316.432 162.921 315.098 165.54C313.954 167.788 314.665 168.196 311.893 167.063C309.141 165.937 306.451 164.542 303.764 163.272C299.024 161.032 293.38 159.036 289.292 155.729C282.472 150.212 279.946 141.427 273.419 135.574C271.602 133.944 270.518 133.915 269.369 131.657C268.138 129.24 267.504 126.141 266.858 123.542C265.725 118.99 264.919 114.422 263.891 109.875C262.611 104.209 259.846 99.0785 257.827 93.6747C257.041 91.5693 256.634 88.8932 255.365 87.0011C255.029 86.4993 254.387 86.2165 254.125 85.8013C253.222 84.3759 253.232 83.9844 252.998 82.2695C251.904 74.2565 247.103 78.4719 241.857 80.3094C239.647 81.0837 229.15 86.1047 233.158 89.4439C228.38 90.825 220.728 90.0744 220.792 96.8959C220.826 100.391 222.924 104.13 224.05 107.402C225.051 110.306 226.017 113.223 227.034 116.123C229.26 122.476 231.96 128.639 234.132 135.012C235.123 137.916 235.94 140.889 237.318 143.63C238.534 146.048 241.478 148.713 241.963 151.357C229.231 145.946 217.452 138.122 203.201 138.621C196.961 138.839 191.298 141.452 187.852 146.918C183.531 153.769 180.688 161.44 176.465 168.355C161.102 193.509 142.779 216.36 125.914 240.473C124.619 242.326 122.953 244.078 122.503 246.368C122.21 247.861 122.779 249.356 122.427 250.791C121.698 253.774 118.012 257.498 115.512 259.212C110.721 262.497 102.932 267.131 96.9532 266.721C100.706 257.737 100.655 247.893 100.481 238.31C100.315 229.207 99.3275 220.177 98.1553 211.168C97.8901 209.13 97.6589 207.24 97.071 205.265C96.3962 202.998 95.4697 203.213 97.4909 201.175C100.602 198.038 104.302 195.457 107.438 192.281C114.22 185.412 121.172 180.028 126.51 171.825C131.587 164.024 136.943 155.996 140.701 147.453C144.57 138.658 146.116 129.265 148.037 119.951C148.816 116.171 151.658 111.952 151.087 108.005C150.365 103.017 148.043 106.649 147.098 109.333C144.214 117.528 137.46 124.862 131.867 131.452C125.823 138.571 118.431 144.528 112.123 151.44C105.254 158.968 100.548 167.62 94.4396 175.656C94.4396 165.683 97.8575 155.527 99.2557 145.662C100.486 136.978 100.872 128.267 101.65 119.546C103.416 99.7343 101.89 79.3394 99.4113 59.6699C98.2334 50.3283 98.9015 41.2068 98.8658 31.8333C98.8544 28.8501 100.094 21.9746 98.5142 19.3273C95.4888 14.2568 93.724 25.3441 93.571 26.9972C92.6562 36.8446 94.2969 46.5822 93.4588 56.3874C92.5828 66.6268 90.682 76.5788 89.0646 86.6997C87.3123 97.6583 84.4595 108.37 81.7283 119.118C78.8606 130.403 76.449 141.924 73.2607 153.119C72.4008 149.6 73.6071 145.277 73.8455 141.693C74.1858 136.564 74.8502 131.434 74.9076 126.292C74.9996 118.097 75.0638 109.75 74.5984 101.592C74.1397 93.5521 74.2783 85.127 71.8031 77.3809C70.6283 73.7043 68.9054 70.1174 67.2197 66.6541C65.14 62.3836 64.4048 58.2429 63.2532 53.701C62.2666 49.8111 60.823 46.0238 60.1657 42.0562C59.7573 39.5887 58.6171 32.3047 55.7815 37.8233C54.1351 41.0265 54.8466 45.775 54.8006 49.2162C54.7416 53.6278 55.4195 57.9174 55.5234 62.3105C55.7256 70.9298 55.8709 79.5388 56.5162 88.1437C57.1931 97.1715 56.6021 105.262 54.8781 114.158C52.9913 123.895 52.4391 133.653 51.4613 143.509C50.9572 148.598 50.1071 153.659 49.6965 158.755C49.4793 161.454 50.5931 169.193 48.652 171.115C48.4643 166.441 47.1199 161.762 46.1008 157.207C44.8934 151.811 44.4058 146.139 43.5159 140.665C42.0748 131.798 39.2784 123.329 37.4283 114.561C33.6149 96.4863 30.4463 73.2561 14.4644 61.4255C12.3734 59.8775 10.0755 58.7349 7.81488 57.461C6.5351 56.7398 4.63382 54.8739 3.16943 54.5484C1.57117 54.1929 0.904663 54.469 0.256775 56.3163C-0.646576 58.8915 1.00549 60.0943 2.54794 61.9648C7.88571 68.437 10.166 76.7338 13.4619 84.3244C21.0091 101.706 24.3484 120.039 24.3867 138.827C24.4068 148.662 25.0878 158.148 26.1406 167.924C27.2735 178.445 28.7653 189.572 31.9737 199.693C28.756 200.412 25.2647 199.34 24.3913 203.067C24.1767 203.982 24.5645 205.064 24.3272 206.256C24.0966 207.414 23.5417 208.566 23.2134 209.705C22.535 212.06 22.1761 214.385 21.8463 216.804C20.5706 226.153 18.3803 235.044 18.1471 244.523C17.9325 253.285 19.6544 262.163 21.2408 270.756C22.8391 279.412 27.4229 286.79 31.0316 294.618C29.4783 294.618 27.9255 294.634 26.3723 294.649Z" fill="black"/>
<path fill-rule="evenodd" clip-rule="evenodd" d="M230.618 274.753C232.329 275.236 240.592 276.145 240.59 278.728C240.589 280.277 232.337 280.247 230.877 280.415C230.79 278.528 230.704 276.641 230.618 274.753ZM212.38 292.577C207.619 293.479 201.156 292.21 198.112 288.029C196.689 286.075 196.015 283.103 195.552 280.771C195.109 278.548 193.744 273.003 194.673 270.92C195.813 268.362 206.753 271.035 209.939 271.329C215.497 271.84 221.244 271.9 226.806 271.539C226.806 277.26 227.099 282.836 223.722 287.76C221.285 291.313 216.709 292.152 212.38 292.577ZM213.337 299.643C218.51 297.757 223.942 298.983 227.31 293.45C228.165 292.046 228.885 290.537 229.402 288.977C229.655 288.294 229.851 287.595 229.991 286.878C229.728 285.336 230.295 284.901 231.692 285.573C234.434 285.042 237.441 286.917 240.329 286.365C247.335 285.024 246.062 275.027 241.361 271.566C240.432 270.882 239.505 270.692 238.442 270.354C236.098 269.61 234.83 270.441 232.686 270.23C230.954 270.059 230.478 268.25 228.617 267.453C227.398 266.932 225.706 266.972 224.425 266.919C217.719 266.645 210.993 266.647 204.244 266.212C201.097 266.009 197.699 266.506 194.615 265.97C193.172 265.718 193.379 264.761 192.012 265.601C190.596 266.471 191.208 269.686 191.279 270.968C191.692 278.383 192.135 286.334 196.122 292.816C199.769 298.747 206.947 299.354 213.337 299.643Z" fill="black"/>
<path fill-rule="evenodd" clip-rule="evenodd" d="M486.554 301.686C484.889 301.668 483.225 301.651 481.567 301.634C483.233 301.652 484.893 301.669 486.554 301.686Z" fill="black"/>
<path fill-rule="evenodd" clip-rule="evenodd" d="M24.3764 143.602C24.3795 142.009 24.3831 140.416 24.3867 138.827C24.3836 140.421 24.38 142.011 24.3764 143.602Z" fill="black"/>
<path fill-rule="evenodd" clip-rule="evenodd" d="M447.773 150.143C447.778 151.695 447.783 153.246 447.788 154.794C447.783 153.242 447.778 151.692 447.773 150.143Z" fill="black"/>
<path fill-rule="evenodd" clip-rule="evenodd" d="M309.419 299.927C308.095 299.929 306.77 299.931 305.452 299.934C306.779 299.933 308.098 299.93 309.419 299.927Z" fill="black"/>
<path fill-rule="evenodd" clip-rule="evenodd" d="M389.823 299.611C388.499 299.615 387.175 299.619 385.857 299.624C387.183 299.621 388.503 299.616 389.823 299.611Z" fill="black"/>
<path fill-rule="evenodd" clip-rule="evenodd" d="M100.306 235.171C100.364 236.219 100.423 237.265 100.481 238.311C100.423 237.262 100.364 236.217 100.306 235.171Z" fill="black"/>
<path fill-rule="evenodd" clip-rule="evenodd" d="M26.372 294.65C27.3953 294.639 28.4186 294.629 29.4419 294.618C28.4139 294.191 27.3906 294.21 26.372 294.65Z" fill="black"/>
<path fill-rule="evenodd" clip-rule="evenodd" d="M117.226 299.287C116.491 299.276 115.757 299.264 115.029 299.252C115.765 299.263 116.495 299.275 117.226 299.287Z" fill="black"/>
<path fill-rule="evenodd" clip-rule="evenodd" d="M24.7749 156.526C24.7568 155.734 24.7386 154.942 24.7205 154.154C24.7386 154.946 24.7568 155.736 24.7749 156.526Z" fill="black"/>
<path fill-rule="evenodd" clip-rule="evenodd" d="M93.4583 56.388C93.5189 55.5715 93.5795 54.7555 93.6406 53.941C93.5795 54.7581 93.5189 55.573 93.4583 56.388Z" fill="black"/>
<path fill-rule="evenodd" clip-rule="evenodd" d="M24.4121 146.72C24.4023 145.902 24.3924 145.084 24.3826 144.268C24.3924 145.087 24.4023 145.904 24.4121 146.72Z" fill="black"/>
<path fill-rule="evenodd" clip-rule="evenodd" d="M255.382 298.272C254.729 298.282 254.076 298.291 253.429 298.299C254.083 298.289 254.733 298.281 255.382 298.272Z" fill="black"/>
<path fill-rule="evenodd" clip-rule="evenodd" d="M87.1746 299.606C86.5365 299.619 85.8979 299.632 85.2655 299.645C85.9062 299.633 86.5401 299.619 87.1746 299.606Z" fill="black"/>
<path fill-rule="evenodd" clip-rule="evenodd" d="M18.2201 242.06C18.2662 241.342 18.3124 240.625 18.3574 239.908C18.3113 240.626 18.2657 241.343 18.2201 242.06Z" fill="black"/>
<path fill-rule="evenodd" clip-rule="evenodd" d="M29.6804 300.304C29.1608 300.301 28.6411 300.298 28.1276 300.297C28.6489 300.301 29.1649 300.303 29.6804 300.304Z" fill="black"/>
<path fill-rule="evenodd" clip-rule="evenodd" d="M100.478 299.639C99.963 299.627 99.4486 299.614 98.9392 299.602C99.4558 299.615 99.9672 299.627 100.478 299.639Z" fill="black"/>
<path fill-rule="evenodd" clip-rule="evenodd" d="M216.142 299.248C215.575 299.245 215.009 299.242 214.448 299.238C215.015 299.241 215.579 299.244 216.142 299.248Z" fill="black"/>
<path fill-rule="evenodd" clip-rule="evenodd" d="M346.759 299.245C346.221 299.249 345.682 299.253 345.15 299.258C345.69 299.255 346.225 299.25 346.759 299.245Z" fill="black"/>
<path fill-rule="evenodd" clip-rule="evenodd" d="M378.534 299.333C377.985 299.302 377.437 299.271 376.893 299.241C377.444 299.272 377.989 299.302 378.534 299.333Z" fill="black"/>
<path fill-rule="evenodd" clip-rule="evenodd" d="M226.408 90.8979C227.225 90.8278 228.042 90.7577 228.859 90.6871C228.041 90.7443 227.176 90.2618 226.408 90.8979Z" fill="black"/>
<path fill-rule="evenodd" clip-rule="evenodd" d="M18.1432 294.958C18.9488 294.878 19.7545 294.797 20.5601 294.715C19.7539 294.797 18.9488 294.878 18.1432 294.958Z" fill="black"/>
<path fill-rule="evenodd" clip-rule="evenodd" d="M74.3347 95.8392C74.3885 96.5424 74.4434 97.2461 74.4973 97.9472C74.4429 97.243 74.3885 96.5409 74.3347 95.8392Z" fill="black"/>
<path fill-rule="evenodd" clip-rule="evenodd" d="M24.2097 125.157C24.1548 124.49 24.0999 123.824 24.045 123.16C24.0999 123.827 24.1553 124.492 24.2097 125.157Z" fill="black"/>
<path fill-rule="evenodd" clip-rule="evenodd" d="M74.6553 106.747C74.7133 107.449 74.7718 108.151 74.8293 108.85C74.7713 108.148 74.7133 107.447 74.6553 106.747Z" fill="black"/>
<path fill-rule="evenodd" clip-rule="evenodd" d="M24.5511 152.067C24.5563 151.388 24.5615 150.71 24.5662 150.033C24.1258 150.71 24.1434 151.387 24.5511 152.067Z" fill="black"/>
<path fill-rule="evenodd" clip-rule="evenodd" d="M100.294 249.496C100.3 250.176 100.306 250.856 100.313 251.533C100.765 250.848 100.675 250.17 100.294 249.496Z" fill="black"/>
<path fill-rule="evenodd" clip-rule="evenodd" d="M48.9471 170.823C49.0258 170.134 49.1051 169.446 49.1838 168.76C49.1046 169.449 49.0258 170.136 48.9471 170.823Z" fill="black"/>
<path fill-rule="evenodd" clip-rule="evenodd" d="M474.122 107.651C474.656 108.355 475.383 107.873 476.018 107.958C475.385 107.856 474.754 107.754 474.122 107.651Z" fill="black"/>
<path fill-rule="evenodd" clip-rule="evenodd" d="M210.003 266.699C210.678 266.7 211.353 266.701 212.028 266.702C211.353 266.701 210.678 266.7 210.003 266.699Z" fill="black"/>
<path fill-rule="evenodd" clip-rule="evenodd" d="M102.194 110.541C102.131 111.112 102.068 111.684 102.005 112.254C102.068 111.681 102.131 111.111 102.194 110.541Z" fill="black"/>
<path fill-rule="evenodd" clip-rule="evenodd" d="M435.682 53.751C436.36 53.7644 437.038 53.7778 437.717 53.7912C437.046 53.3974 436.369 53.2835 435.682 53.751Z" fill="black"/>
<path fill-rule="evenodd" clip-rule="evenodd" d="M74.6721 116.638C74.7161 117.238 74.7602 117.837 74.8037 118.434C74.7597 117.834 74.7161 117.236 74.6721 116.638Z" fill="black"/>
<path fill-rule="evenodd" clip-rule="evenodd" d="M93.2764 43.0337C93.2235 42.4871 93.1712 41.9406 93.1189 41.3971C93.1717 41.9447 93.2235 42.4892 93.2764 43.0337Z" fill="black"/>
<path fill-rule="evenodd" clip-rule="evenodd" d="M98.6068 41.3215C98.6602 41.9145 98.7135 42.5079 98.7664 43.0988C98.713 42.5048 98.6602 41.9129 98.6068 41.3215Z" fill="black"/>
<path fill-rule="evenodd" clip-rule="evenodd" d="M393.286 1.71167C393.976 1.79478 394.666 1.87789 395.356 1.96049C394.666 1.87738 393.976 1.79478 393.286 1.71167Z" fill="black"/>
<path fill-rule="evenodd" clip-rule="evenodd" d="M443.144 54.2229C443.853 54.2947 444.561 54.3666 445.269 54.4384C444.56 54.3666 443.852 54.2947 443.144 54.2229Z" fill="black"/>
<path fill-rule="evenodd" clip-rule="evenodd" d="M54.9578 55.961C54.9142 55.4093 54.8713 54.8571 54.8283 54.3085C54.8713 54.8607 54.9148 55.4109 54.9578 55.961Z" fill="black"/>
<path fill-rule="evenodd" clip-rule="evenodd" d="M466.395 147.015C465.987 147.021 465.58 147.027 465.178 147.033C465.587 147.027 465.991 147.021 466.395 147.015Z" fill="black"/>
<path fill-rule="evenodd" clip-rule="evenodd" d="M98.5862 215.109C98.6271 215.72 98.6681 216.33 98.709 216.94C98.6675 216.329 98.6266 215.719 98.5862 215.109Z" fill="black"/>
<path fill-rule="evenodd" clip-rule="evenodd" d="M56.9693 96.2141C56.9859 95.6253 57.0019 95.037 57.019 94.4497C57.0014 95.039 56.9854 95.6263 56.9693 96.2141Z" fill="black"/>
<path fill-rule="evenodd" clip-rule="evenodd" d="M375.909 0.31871C376.538 0.31871 377.167 0.319225 377.795 0.319225C377.166 -0.11172 376.537 -0.100894 375.909 0.31871Z" fill="black"/>
<path fill-rule="evenodd" clip-rule="evenodd" d="M207.905 138.903C208.594 138.921 209.283 138.938 209.971 138.956C209.295 138.478 208.605 138.467 207.905 138.903Z" fill="black"/>
<path fill-rule="evenodd" clip-rule="evenodd" d="M147.671 298.248C147.262 298.256 146.853 298.265 146.45 298.275C146.861 298.267 147.266 298.257 147.671 298.248Z" fill="black"/>
<path fill-rule="evenodd" clip-rule="evenodd" d="M132.284 298.964C131.876 298.949 131.468 298.935 131.066 298.921C131.475 298.935 131.88 298.95 132.284 298.964Z" fill="black"/>
<path fill-rule="evenodd" clip-rule="evenodd" d="M373.084 299.246C372.659 299.257 372.233 299.268 371.814 299.278C372.241 299.267 372.663 299.257 373.084 299.246Z" fill="black"/>
<path fill-rule="evenodd" clip-rule="evenodd" d="M18.5735 235.248C18.6341 234.666 18.6947 234.083 18.7559 233.504C18.6947 234.087 18.6341 234.667 18.5735 235.248Z" fill="black"/>
<path fill-rule="evenodd" clip-rule="evenodd" d="M74.1511 137.115C74.1024 137.67 74.0543 138.224 74.0066 138.776C74.0548 138.22 74.1029 137.667 74.1511 137.115Z" fill="black"/>
<path fill-rule="evenodd" clip-rule="evenodd" d="M52.7628 127.59C52.8291 127.001 52.8954 126.413 52.9612 125.827C52.8949 126.416 52.8291 127.002 52.7628 127.59Z" fill="black"/>
<path fill-rule="evenodd" clip-rule="evenodd" d="M369.632 299.597C369.203 299.59 368.773 299.584 368.348 299.578C368.78 299.585 369.206 299.591 369.632 299.597Z" fill="black"/>
<path fill-rule="evenodd" clip-rule="evenodd" d="M213.337 299.644C212.919 299.625 212.502 299.606 212.09 299.587C212.508 299.606 212.923 299.625 213.337 299.644Z" fill="black"/>
<path fill-rule="evenodd" clip-rule="evenodd" d="M56.2538 84.6327C56.273 84.0367 56.2917 83.4407 56.3103 82.8457C56.2911 83.4422 56.2725 84.0372 56.2538 84.6327Z" fill="black"/>
<path fill-rule="evenodd" clip-rule="evenodd" d="M410.328 299.986C409.909 299.983 409.49 299.98 409.077 299.977C409.498 299.981 409.912 299.984 410.328 299.986Z" fill="black"/>
<path fill-rule="evenodd" clip-rule="evenodd" d="M56.4292 299.98C55.999 299.985 55.5683 299.989 55.1432 299.994C55.576 299.99 56.0026 299.985 56.4292 299.98Z" fill="black"/>
<path fill-rule="evenodd" clip-rule="evenodd" d="M47.1343 299.929C46.7185 299.959 46.3033 299.989 45.8928 300.018C46.3101 299.988 46.7222 299.959 47.1343 299.929Z" fill="black"/>
<path fill-rule="evenodd" clip-rule="evenodd" d="M43.3804 299.922C42.9574 299.935 42.5339 299.948 42.1161 299.957C42.5406 299.944 42.9605 299.933 43.3804 299.922Z" fill="black"/>
<path fill-rule="evenodd" clip-rule="evenodd" d="M24.1061 129.952C24.1341 129.366 24.1615 128.779 24.189 128.195C24.161 128.782 24.1341 129.367 24.1061 129.952Z" fill="black"/>
<path fill-rule="evenodd" clip-rule="evenodd" d="M308.153 292.237C306.866 292.171 305.579 292.104 304.291 292.037C305.579 292.104 306.866 292.17 308.153 292.237Z" fill="black"/>
<path fill-rule="evenodd" clip-rule="evenodd" d="M385.813 79.0746C384.695 79.171 383.578 79.2675 382.462 79.3629C383.579 79.267 384.696 79.1705 385.813 79.0746Z" fill="black"/>
<path fill-rule="evenodd" clip-rule="evenodd" d="M70.3198 127.473C70.2851 128.535 70.2494 129.597 70.2147 130.656C70.2499 129.594 70.2851 128.533 70.3198 127.473Z" fill="black"/>
<path fill-rule="evenodd" clip-rule="evenodd" d="M47.2595 294.054C46.093 294.125 44.927 294.195 43.7605 294.266C44.9342 294.319 46.1256 294.652 47.2595 294.054Z" fill="black"/>
<path fill-rule="evenodd" clip-rule="evenodd" d="M54.1624 168.408C54.1535 167.395 54.1447 166.382 54.1365 165.371C54.1453 166.385 54.1535 167.397 54.1624 168.408Z" fill="black"/>
<path fill-rule="evenodd" clip-rule="evenodd" d="M57.1482 200.245C56.1249 200.258 55.1005 200.272 54.0778 200.285C55.1016 200.271 56.1249 200.258 57.1482 200.245Z" fill="black"/>
<path fill-rule="evenodd" clip-rule="evenodd" d="M314.799 182.43C314.825 183.203 314.85 183.975 314.875 184.743C314.849 183.97 314.824 183.201 314.799 182.43Z" fill="black"/>
<path fill-rule="evenodd" clip-rule="evenodd" d="M40.1137 149.732C40.1557 150.501 40.1976 151.269 40.2385 152.034C40.196 151.264 40.1546 150.498 40.1137 149.732Z" fill="black"/>
<path fill-rule="evenodd" clip-rule="evenodd" d="M61.9497 290.635C61.2051 290.584 60.4605 290.534 59.7175 290.486C60.2775 290.933 60.8406 290.971 61.9497 290.635Z" fill="black"/>
<path fill-rule="evenodd" clip-rule="evenodd" d="M66.9329 190.183C66.8816 191.012 66.8303 191.84 66.7795 192.666C66.8308 191.837 66.8816 191.01 66.9329 190.183Z" fill="black"/>
<path fill-rule="evenodd" clip-rule="evenodd" d="M345.334 59.4389C345.327 58.6389 345.319 57.8389 345.311 57.042C345.318 57.843 345.326 58.641 345.334 59.4389Z" fill="black"/>
<path fill-rule="evenodd" clip-rule="evenodd" d="M66.0315 200.412L63.2563 200.351C64.1721 200.793 65.0971 200.808 66.0315 200.412Z" fill="black"/>
<path fill-rule="evenodd" clip-rule="evenodd" d="M40.4285 206.316C41.0831 206.321 41.7372 206.326 42.3872 206.333C41.731 206.328 41.0795 206.322 40.4285 206.316Z" fill="black"/>
<path fill-rule="evenodd" clip-rule="evenodd" d="M280.079 290.953C279.173 290.965 278.267 290.977 277.361 290.988C278.274 291.444 279.181 291.509 280.079 290.953Z" fill="black"/>
<path fill-rule="evenodd" clip-rule="evenodd" d="M450.73 293.611C449.81 293.53 448.89 293.448 447.971 293.367C448.89 293.448 449.81 293.53 450.73 293.611Z" fill="black"/>
<path fill-rule="evenodd" clip-rule="evenodd" d="M70.001 134.295C69.9559 135.126 69.9108 135.958 69.8658 136.787C69.9108 135.954 69.9559 135.125 70.001 134.295Z" fill="black"/>
<path fill-rule="evenodd" clip-rule="evenodd" d="M363.463 81.0267C362.688 80.6458 361.907 80.5819 361.118 80.9855C361.9 80.9994 362.682 81.0133 363.463 81.0267Z" fill="black"/>
<path fill-rule="evenodd" clip-rule="evenodd" d="M95.3547 143.896C95.2905 144.597 95.2263 145.299 95.1621 145.998C95.2268 145.296 95.2905 144.595 95.3547 143.896Z" fill="black"/>
<path fill-rule="evenodd" clip-rule="evenodd" d="M29.8783 127.531C30.2772 126.845 30.2632 126.162 29.8586 125.486C29.8654 126.169 29.8716 126.85 29.8783 127.531Z" fill="black"/>
<path fill-rule="evenodd" clip-rule="evenodd" d="M69.874 103.711C69.874 104.405 69.8735 105.099 69.8735 105.791C69.874 105.096 69.874 104.403 69.874 103.711Z" fill="black"/>
<path fill-rule="evenodd" clip-rule="evenodd" d="M42.0894 199.913C41.2915 199.669 40.4937 199.324 39.6994 199.921C40.4962 199.919 41.2925 199.916 42.0894 199.913Z" fill="black"/>
<path fill-rule="evenodd" clip-rule="evenodd" d="M299.906 291.923C299.103 291.849 298.301 291.775 297.498 291.7C298.301 291.775 299.103 291.849 299.906 291.923Z" fill="black"/>
<path fill-rule="evenodd" clip-rule="evenodd" d="M409.963 291.926C409.228 291.603 408.494 291.434 407.77 291.95C408.502 291.942 409.232 291.934 409.963 291.926Z" fill="black"/>
<path fill-rule="evenodd" clip-rule="evenodd" d="M259.565 290.893C258.778 290.55 257.994 290.362 257.218 290.917C258.001 290.909 258.783 290.901 259.565 290.893Z" fill="black"/>
<path fill-rule="evenodd" clip-rule="evenodd" d="M434.589 189.551C434.53 190.259 434.47 190.966 434.412 191.671C434.472 190.963 434.531 190.258 434.589 189.551Z" fill="black"/>
<path fill-rule="evenodd" clip-rule="evenodd" d="M252.049 148.811C251.275 148.532 250.504 148.386 249.744 148.853C250.513 148.838 251.281 148.825 252.049 148.811Z" fill="black"/>
<path fill-rule="evenodd" clip-rule="evenodd" d="M70.0129 169.866C69.9699 170.557 69.927 171.248 69.8845 171.938C69.9275 171.246 69.9705 170.556 70.0129 169.866Z" fill="black"/>
<path fill-rule="evenodd" clip-rule="evenodd" d="M435.089 107.487C435.153 108.044 435.217 108.601 435.281 109.155C435.217 108.597 435.153 108.042 435.089 107.487Z" fill="black"/>
<path fill-rule="evenodd" clip-rule="evenodd" d="M479.926 268.978C479.965 269.521 480.005 270.063 480.044 270.602C480.003 270.059 479.964 269.518 479.926 268.978Z" fill="black"/>
<path fill-rule="evenodd" clip-rule="evenodd" d="M53.8192 173.524C53.8627 172.964 53.9062 172.403 53.9497 171.846C53.9062 172.407 53.8627 172.966 53.8192 173.524Z" fill="black"/>
<path fill-rule="evenodd" clip-rule="evenodd" d="M110.155 289.846C109.465 289.85 108.776 289.856 108.087 289.86C108.777 289.856 109.466 289.85 110.155 289.846Z" fill="black"/>
<path fill-rule="evenodd" clip-rule="evenodd" d="M315.06 187.2C314.931 187.608 314.803 188.017 314.674 188.426C315.534 188.633 315.663 188.224 315.06 187.2Z" fill="black"/>
<path fill-rule="evenodd" clip-rule="evenodd" d="M263.377 147.89C262.677 147.887 261.977 147.884 261.277 147.881C261.976 148.212 262.676 148.439 263.377 147.89Z" fill="black"/>
<path fill-rule="evenodd" clip-rule="evenodd" d="M434.197 192.9C434.173 193.518 434.149 194.137 434.126 194.753C434.151 194.134 434.174 193.517 434.197 192.9Z" fill="black"/>
<path fill-rule="evenodd" clip-rule="evenodd" d="M426.79 292.602C426.114 292.601 425.439 292.601 424.763 292.6C425.439 292.601 426.114 292.601 426.79 292.602Z" fill="black"/>
<path fill-rule="evenodd" clip-rule="evenodd" d="M93.655 199.418C93.6302 199.987 93.6048 200.556 93.5794 201.123C93.6037 200.552 93.6296 199.985 93.655 199.418Z" fill="black"/>
<path fill-rule="evenodd" clip-rule="evenodd" d="M441.137 293.296C440.472 292.856 439.806 292.894 439.139 293.289C439.805 293.291 440.471 293.294 441.137 293.296Z" fill="black"/>
<path fill-rule="evenodd" clip-rule="evenodd" d="M423.64 99.5345C423.604 100.116 423.568 100.697 423.531 101.275C423.567 100.693 423.603 100.114 423.64 99.5345Z" fill="black"/>
<path fill-rule="evenodd" clip-rule="evenodd" d="M444.594 293.356C443.903 293.358 443.212 293.361 442.522 293.364C443.215 293.834 443.905 293.857 444.594 293.356Z" fill="black"/>
<path fill-rule="evenodd" clip-rule="evenodd" d="M62.0669 90.413C62.0612 89.8227 62.056 89.2328 62.0508 88.644C62.0565 89.2349 62.0617 89.8237 62.0669 90.413Z" fill="black"/>
<path fill-rule="evenodd" clip-rule="evenodd" d="M379.216 80.0894C378.555 80.175 377.894 80.2607 377.234 80.3459C377.894 80.2602 378.555 80.175 379.216 80.0894Z" fill="black"/>
<path fill-rule="evenodd" clip-rule="evenodd" d="M437.529 131.036C437.52 131.587 437.511 132.139 437.501 132.688C437.51 132.135 437.519 131.586 437.529 131.036Z" fill="black"/>
<path fill-rule="evenodd" clip-rule="evenodd" d="M57.6183 130.957C57.6545 130.396 57.6908 129.834 57.7271 129.275C57.6908 129.838 57.654 130.398 57.6183 130.957Z" fill="black"/>
<path fill-rule="evenodd" clip-rule="evenodd" d="M211.744 292.697C210.929 292.771 210.114 292.844 209.299 292.917C210.114 292.844 210.929 292.771 211.744 292.697Z" fill="black"/>
<path fill-rule="evenodd" clip-rule="evenodd" d="M214.469 271.668C214.91 271.675 215.35 271.682 215.787 271.691C215.345 271.685 214.907 271.677 214.469 271.668Z" fill="black"/>
<path fill-rule="evenodd" clip-rule="evenodd" d="M214.431 292.376C213.748 292.442 213.063 292.51 212.379 292.576C213.063 292.509 213.748 292.442 214.431 292.376Z" fill="black"/>
<path fill-rule="evenodd" clip-rule="evenodd" d="M337.507 246.493C336.617 251.502 344.431 256.401 345.05 249.28C345.277 246.676 343.529 244.846 341.572 243.254C338.794 240.995 337.242 243.158 337.507 246.493Z" fill="black"/>
<path fill-rule="evenodd" clip-rule="evenodd" d="M423.637 185.378C421.796 186.129 407.732 190.694 415.038 192.991C416.972 193.599 419.895 193.689 421.571 192.618C423.588 191.33 425.622 187.526 423.637 185.378Z" fill="black"/>
<path fill-rule="evenodd" clip-rule="evenodd" d="M420.176 117.542C415.402 116.99 411.004 124.801 416.89 124.548C421.174 124.363 426.935 117.542 420.176 117.542Z" fill="black"/>
<path fill-rule="evenodd" clip-rule="evenodd" d="M403.1 136.695C399.113 140.16 406.502 147.914 409.435 144.913C410.933 143.38 409.552 140.077 408.315 138.794C407.046 137.478 404.789 137.231 403.1 136.695Z" fill="black"/>
<path fill-rule="evenodd" clip-rule="evenodd" d="M391.232 226.519C393.586 226.891 403.934 230.26 401.776 224.141C400.953 221.807 398.657 222.5 396.558 222.607C393.176 222.779 391.232 222.618 391.232 226.519Z" fill="black"/>
<path fill-rule="evenodd" clip-rule="evenodd" d="M398.049 242.281C394.527 244.158 399.676 254.666 402.596 252.43C406.647 249.328 401.106 243.224 398.049 242.281Z" fill="black"/>
<path fill-rule="evenodd" clip-rule="evenodd" d="M382.685 233.834C380.972 233.137 372.897 240.875 375.971 243.028C377.546 244.131 380.531 242.24 381.481 241.099C383.262 238.96 383.423 236.322 382.685 233.834Z" fill="black"/>
<path fill-rule="evenodd" clip-rule="evenodd" d="M429.275 170.582C427.524 170.869 424.501 170.959 424.388 173.41C424.289 175.565 427 176.263 428.908 176.432C430.889 176.607 433.51 176.05 433.548 173.57C433.588 170.893 429.337 171.055 429.275 170.582Z" fill="black"/>
<path fill-rule="evenodd" clip-rule="evenodd" d="M386.1 277.243C384.236 278.371 375.538 282.431 379.266 285.364C380.662 286.462 384.891 284.195 385.843 283.042C386.979 281.667 388.089 278.445 386.1 277.243Z" fill="black"/>
<path fill-rule="evenodd" clip-rule="evenodd" d="M361.923 247.78C362.192 243.298 354.603 241.515 356.176 247.876C356.62 249.67 357.049 252.392 359.275 252.496C361.906 252.619 362.001 249.518 361.923 247.78Z" fill="black"/>
<path fill-rule="evenodd" clip-rule="evenodd" d="M385.368 169.844C385.315 173.244 391.854 176.242 391.905 170.854C391.95 166.038 385.124 164.629 385.368 169.844Z" fill="black"/>
<path fill-rule="evenodd" clip-rule="evenodd" d="M389.686 152.137C388.075 152.655 385.934 152.921 385.792 154.96C385.641 157.119 387.654 158.079 389.465 157.958C390.95 157.859 393.147 156.764 393.417 155.159C393.813 152.802 391.505 152.648 389.686 152.137Z" fill="black"/>
<path fill-rule="evenodd" clip-rule="evenodd" d="M419.646 214.383C419.674 211.578 414.03 208.206 412.991 211.461C412.659 212.503 415.318 217.174 416.203 217.523C418.544 218.449 418.871 216.292 419.646 214.383Z" fill="black"/>
<path fill-rule="evenodd" clip-rule="evenodd" d="M373.402 261.077C375.309 262.777 381.029 267.554 380.602 261.142C380.329 257.045 372.899 257.259 373.402 261.077Z" fill="black"/>
<path fill-rule="evenodd" clip-rule="evenodd" d="M280.202 279.404C279.577 276.708 270.628 281.385 273.614 284.791C274.616 285.934 277.237 284.9 278.245 284.222C280.24 282.881 280.283 281.643 280.202 279.404Z" fill="black"/>
<path fill-rule="evenodd" clip-rule="evenodd" d="M330.066 221.689C329.717 220.487 329.33 218.362 328.179 217.595C326.096 216.207 324.282 218.301 324.282 220.507C324.281 224.623 328.984 225.921 330.066 221.689Z" fill="black"/>
<path fill-rule="evenodd" clip-rule="evenodd" d="M352.248 269.812C349.924 270.343 344.75 275.97 347.751 278.266C350.639 280.475 354.48 271.493 352.248 269.812Z" fill="black"/>
<path fill-rule="evenodd" clip-rule="evenodd" d="M350.036 227.217C347.048 227.454 342.941 232.274 347.585 233.04C351.218 233.64 355.442 228.397 350.036 227.217Z" fill="black"/>
<path fill-rule="evenodd" clip-rule="evenodd" d="M322.988 249.397C322.238 246.883 314.829 249.577 315.245 252.345C315.466 253.817 318.496 254.163 320.088 253.774C322.433 253.2 323.041 251.668 322.988 249.397Z" fill="black"/>
<path fill-rule="evenodd" clip-rule="evenodd" d="M410.33 108.967C410.277 105.717 404.007 104.392 403.548 107.668C403.133 110.627 410.409 113.776 410.33 108.967Z" fill="black"/>
<path fill-rule="evenodd" clip-rule="evenodd" d="M325.059 282.891C324.607 281.256 324.412 279.289 322.363 279.074C320.016 278.827 320.086 280.62 320.361 282.477C321.112 287.531 323.979 287.784 325.059 282.891Z" fill="black"/>
<path fill-rule="evenodd" clip-rule="evenodd" d="M424.067 147.641C427.335 148.376 433.321 142.104 429.662 140.759C427.084 139.809 424.067 145.749 424.067 147.641Z" fill="black"/>
<path fill-rule="evenodd" clip-rule="evenodd" d="M382.379 196.355C384.042 197.135 384.425 197.609 385.703 196.328C386.816 195.213 386.766 192.105 385.811 190.945C382.154 186.503 382.239 194.557 382.379 196.355Z" fill="black"/>
<path fill-rule="evenodd" clip-rule="evenodd" d="M368.807 187.344C367.073 187.564 361.918 192.435 364.602 194.371C367.891 196.743 369.752 189.313 368.807 187.344Z" fill="black"/>
<path fill-rule="evenodd" clip-rule="evenodd" d="M331.274 188.627C332.535 193.465 335.682 190.21 335.504 186.549C335.217 180.686 331.956 185.792 331.274 188.627Z" fill="black"/>
<path fill-rule="evenodd" clip-rule="evenodd" d="M312.136 266.324C310.003 267.203 307.107 275.328 310.154 275.764C313.577 276.253 312.437 268.015 312.136 266.324Z" fill="black"/>
<path fill-rule="evenodd" clip-rule="evenodd" d="M338.779 261.759C336.337 260.938 335.443 266.069 336.862 267.022C339.983 269.118 339.325 262.97 338.779 261.759Z" fill="black"/>
<path fill-rule="evenodd" clip-rule="evenodd" d="M361.923 247.78C361.954 248.461 361.984 249.142 362.016 249.819C361.986 249.137 361.955 248.459 361.923 247.78Z" fill="black"/>
<path fill-rule="evenodd" clip-rule="evenodd" d="M280.202 279.404C280.228 280.103 280.253 280.801 280.28 281.496C280.255 280.796 280.229 280.1 280.202 279.404Z" fill="black"/>
<path fill-rule="evenodd" clip-rule="evenodd" d="M322.987 249.397C323.001 249.99 323.015 250.582 323.031 251.171C323.017 250.577 323.002 249.987 322.987 249.397Z" fill="black"/>
<path fill-rule="evenodd" clip-rule="evenodd" d="M52.9717 239.202C47.9105 239.04 42.2646 237.142 37.2914 237.746C35.9221 237.913 32.7705 238.256 34.964 240.279C36.0131 241.246 41.0355 240.746 42.5557 241.067C51.8481 243.027 62.3964 244.291 71.9246 244.128C76.3849 244.052 80.8783 243.696 85.3365 243.461C89.7917 243.226 90.2296 241.423 85.2166 240.849C80.0101 240.253 74.6677 240.474 69.4354 240.468C63.9347 240.461 58.4615 239.568 52.9717 239.202Z" fill="black"/>
<path fill-rule="evenodd" clip-rule="evenodd" d="M41.8606 227.054C42.3477 228.436 42.7753 231.607 44.642 231.815C47.2563 232.106 47.6891 227.634 47.5929 225.999C47.476 224.025 46.763 220.745 44.3002 221.429C42.22 222.006 42.0116 225.474 41.8606 227.054Z" fill="black"/>
<path fill-rule="evenodd" clip-rule="evenodd" d="M57.688 226.042C57.3059 224.563 57.1182 221.227 55.0178 221.114C52.6703 220.987 51.9997 224.463 52.0152 226.128C52.0307 227.709 52.6175 230.696 54.4868 231.061C57.021 231.556 57.2474 227.733 57.688 226.042Z" fill="black"/>
<path fill-rule="evenodd" clip-rule="evenodd" d="M84.0462 228.696C84.8068 230.475 85.3099 232.924 87.6636 231.711C89.4838 230.774 89.7376 226.992 89.3943 225.261C89.0385 223.467 88.2852 221.41 86.2163 222.216C83.8306 223.147 84.0715 226.738 84.0462 228.696Z" fill="black"/>
<path fill-rule="evenodd" clip-rule="evenodd" d="M64.086 227.054C66.3296 233.83 70.4217 229.246 68.8679 224.187C67.2432 218.9 64.2923 224.035 64.086 227.054Z" fill="black"/>
<path fill-rule="evenodd" clip-rule="evenodd" d="M75.0172 227.389C75.6403 228.582 76.3032 231.156 77.9826 230.885C80.0416 230.552 80.1078 226.605 79.8818 225.135C79.6848 223.848 79.1047 221.703 77.3813 221.731C74.891 221.771 75.058 225.845 75.0172 227.389Z" fill="black"/>
<path fill-rule="evenodd" clip-rule="evenodd" d="M30.2631 228.69C31.9333 232.423 34.2307 229.207 33.4954 226.556C32.4049 222.624 30.3578 226.108 30.2631 228.69Z" fill="black"/>
<path fill-rule="evenodd" clip-rule="evenodd" d="M71.1662 240.473C72.9899 240.466 74.8147 240.459 76.6384 240.452C74.8131 240.11 72.9879 239.976 71.1662 240.473Z" fill="black"/>
<path fill-rule="evenodd" clip-rule="evenodd" d="M34.9184 237.731C36.5006 237.741 38.0824 237.751 39.6636 237.762C38.0844 237.289 36.5027 237.279 34.9184 237.731Z" fill="black"/>
<path fill-rule="evenodd" clip-rule="evenodd" d="M52.9716 239.202C54.2379 239.286 55.5037 239.37 56.7695 239.454C55.5032 239.37 54.2374 239.286 52.9716 239.202Z" fill="black"/>
<path fill-rule="evenodd" clip-rule="evenodd" d="M84.0461 228.696C84.0575 227.791 84.0699 226.885 84.0808 225.982C83.612 226.882 83.6446 227.787 84.0461 228.696Z" fill="black"/>
<path fill-rule="evenodd" clip-rule="evenodd" d="M74.1213 244.109C73.3871 244.116 72.6528 244.122 71.9248 244.129C72.6611 244.122 73.3912 244.116 74.1213 244.109Z" fill="black"/>
<path fill-rule="evenodd" clip-rule="evenodd" d="M86.4514 243.461C85.7079 243.461 84.9638 243.461 84.2254 243.461C84.972 243.461 85.7115 243.461 86.4514 243.461Z" fill="black"/>
<path fill-rule="evenodd" clip-rule="evenodd" d="M80.3539 240.551C81.388 240.635 82.4222 240.719 83.4558 240.803C82.4217 240.719 81.388 240.635 80.3539 240.551Z" fill="black"/>
<path fill-rule="evenodd" clip-rule="evenodd" d="M66.3721 240.462C67.3934 240.464 68.4141 240.466 69.4353 240.468C68.4146 240.039 67.3939 240.027 66.3721 240.462Z" fill="black"/>
<path fill-rule="evenodd" clip-rule="evenodd" d="M75.017 227.389C75.0424 226.446 75.0672 225.502 75.0911 224.559C75.0657 225.503 75.0413 226.447 75.017 227.389Z" fill="black"/>
<path fill-rule="evenodd" clip-rule="evenodd" d="M89.3942 225.261C89.3999 226.181 89.4056 227.102 89.4128 228.019C89.4071 227.097 89.4009 226.179 89.3942 225.261Z" fill="black"/>
<path fill-rule="evenodd" clip-rule="evenodd" d="M47.1698 238.859C48.0726 238.94 48.9749 239.021 49.8767 239.102C48.9739 239.021 48.0716 238.94 47.1698 238.859Z" fill="black"/>
<path fill-rule="evenodd" clip-rule="evenodd" d="M30.263 228.69C30.2926 227.886 30.3216 227.082 30.3506 226.279C30.3211 227.083 30.2926 227.886 30.263 228.69Z" fill="black"/>
<path fill-rule="evenodd" clip-rule="evenodd" d="M68.6663 244.136C68.038 244.124 67.4098 244.112 66.7877 244.101C67.418 244.114 68.0421 244.125 68.6663 244.136Z" fill="black"/>
<path fill-rule="evenodd" clip-rule="evenodd" d="M41.8603 227.054C41.9158 226.476 41.9712 225.898 42.0261 225.322C41.9707 225.901 41.9153 226.477 41.8603 227.054Z" fill="black"/>
<path fill-rule="evenodd" clip-rule="evenodd" d="M64.0855 227.054C64.1259 226.461 64.1669 225.867 64.2073 225.275C64.1663 225.869 64.1259 226.462 64.0855 227.054Z" fill="black"/>
<path fill-rule="evenodd" clip-rule="evenodd" d="M388.104 52.6642C390.575 52.0182 391.039 48.5585 390.641 46.4335C390.191 45.4095 389.741 44.3859 389.29 43.3618C389.467 42.9831 389.642 42.6045 389.818 42.2259C389.592 40.1169 390.17 39.2005 387.737 40.0546C383.218 41.6422 382.495 52.5014 388.104 52.6642Z" fill="black"/>
<path fill-rule="evenodd" clip-rule="evenodd" d="M351.526 45.975C349.49 45.8153 345.792 48.1772 347.819 50.4623C349.074 51.8779 353.211 51.2083 354.899 51.5039C357.137 51.896 359.472 52.4322 358.261 49.0921C357.31 46.469 353.914 45.9064 351.526 45.975Z" fill="black"/>
<path fill-rule="evenodd" clip-rule="evenodd" d="M353.668 61.6859C355.735 60.0339 354.812 52.5092 351.666 53.863C348.428 55.2564 351.942 60.6 353.668 61.6859Z" fill="black"/>
<path fill-rule="evenodd" clip-rule="evenodd" d="M390.641 46.4335C390.641 47.2252 390.642 48.0175 390.643 48.8057C391.075 48.0124 391.062 47.2227 390.641 46.4335Z" fill="black"/>
<path fill-rule="evenodd" clip-rule="evenodd" d="M388.104 52.6644C387.683 52.6525 387.261 52.64 386.845 52.6292C387.268 52.6426 387.686 52.6535 388.104 52.6644Z" fill="black"/>
<path fill-rule="evenodd" clip-rule="evenodd" d="M132.781 269.366C132.975 272.789 136.664 270.258 136.402 267.968C135.927 263.813 133.569 267.919 132.781 269.366Z" fill="black"/>
</svg>
