<?xml version="1.0" standalone="no"?>
<!DOCTYPE svg PUBLIC "-//W3C//DTD SVG 20010904//EN"
 "http://www.w3.org/TR/2001/REC-SVG-20010904/DTD/svg10.dtd">
<svg version="1.0" xmlns="http://www.w3.org/2000/svg"
 width="100.000000pt" height="100.000000pt" viewBox="0 0 100.000000 100.000000"
 preserveAspectRatio="xMidYMid meet">

<g transform="translate(0.000000,100.000000) scale(0.100000,-0.100000)"
fill="#000000" stroke="none">
<path d="M374 972 c-22 -16 -64 -37 -94 -47 -60 -20 -130 -80 -130 -111 0 -11
6 -42 14 -71 14 -51 14 -52 -11 -68 -62 -41 -122 -189 -125 -304 -3 -203 -5
-186 28 -228 144 -179 698 -190 871 -17 50 51 61 92 43 172 -7 31 -12 72 -11
91 3 69 -44 191 -102 264 -28 37 -29 39 -17 83 19 68 15 103 -17 136 -15 16
-39 36 -53 43 -40 21 -129 38 -189 37 -42 -1 -65 4 -97 23 -54 32 -62 31 -110
-3z m100 -38 c40 -22 55 -25 95 -20 40 5 53 2 82 -17 19 -12 42 -38 51 -57 17
-33 17 -35 -4 -57 -75 -80 -322 -79 -398 2 l-22 24 21 29 c18 26 118 122 126
122 1 0 24 -12 49 -26z m302 -72 c40 -31 43 -52 23 -118 -22 -70 -52 -99 -141
-135 -41 -17 -75 -22 -153 -23 -181 -2 -268 43 -299 154 -19 68 -16 91 18 114
24 15 24 15 19 -22 -7 -49 27 -90 99 -123 45 -20 69 -23 158 -23 89 0 113 3
158 23 85 38 121 97 92 152 -13 24 -2 24 26 1z m-547 -242 c65 -52 141 -74
266 -74 125 0 200 21 268 75 36 29 40 30 56 15 48 -43 108 -203 96 -255 -8
-37 -64 -102 -109 -126 -40 -22 -53 -43 -30 -52 18 -7 120 61 136 91 11 20 11
20 19 1 39 -100 -38 -180 -221 -231 -92 -26 -328 -26 -420 0 -146 40 -230 103
-230 171 0 41 6 43 31 11 35 -45 94 -85 110 -76 11 7 2 21 -42 67 -75 77 -92
112 -86 177 6 67 39 152 78 199 17 20 33 37 35 37 3 0 22 -14 43 -30z"/>
<path d="M404 889 c-10 -17 13 -36 27 -22 12 12 4 33 -11 33 -5 0 -12 -5 -16
-11z"/>
<path d="M364 829 c-10 -17 13 -36 27 -22 12 12 4 33 -11 33 -5 0 -12 -5 -16
-11z"/>
<path d="M444 829 c-10 -17 13 -36 27 -22 12 12 4 33 -11 33 -5 0 -12 -5 -16
-11z"/>
<path d="M759 550 c-43 -44 -126 -79 -214 -88 -44 -5 -60 -11 -60 -22 0 -33
126 -20 220 24 59 27 115 79 115 107 0 29 -21 22 -61 -21z"/>
</g>
</svg>
