<?xml version="1.0" standalone="no"?>
<!DOCTYPE svg PUBLIC "-//W3C//DTD SVG 20010904//EN"
 "http://www.w3.org/TR/2001/REC-SVG-20010904/DTD/svg10.dtd">
<svg version="1.0" xmlns="http://www.w3.org/2000/svg"
 width="100.000000pt" height="100.000000pt" viewBox="0 0 100.000000 100.000000"
 preserveAspectRatio="xMidYMid meet">

<g transform="translate(0.000000,100.000000) scale(0.100000,-0.100000)"
fill="#000000" stroke="none">
<path d="M71 866 c-44 -24 -50 -51 -51 -211 l0 -150 20 33 c17 27 20 50 20
147 0 151 4 155 129 155 l90 0 3 -27 c3 -27 5 -28 58 -28 53 0 55 1 58 28 l3
27 99 0 99 0 3 -27 c3 -27 5 -28 58 -28 53 0 55 1 58 28 l3 27 90 0 c125 0
129 -4 129 -155 0 -97 3 -120 20 -147 l20 -33 0 147 c0 161 -7 191 -51 214
-39 20 -822 20 -858 0z"/>
<path d="M126 579 c-37 -29 -74 -96 -82 -149 -4 -26 -15 -51 -26 -58 -28 -21
-22 -113 9 -127 14 -6 26 -25 34 -52 16 -59 39 -73 119 -73 80 0 103 14 120
75 11 39 16 45 40 45 24 0 29 -6 40 -45 17 -61 40 -75 120 -75 80 0 103 14
120 75 11 39 16 45 40 45 24 0 29 -6 40 -45 17 -61 40 -75 120 -75 80 0 103
14 119 73 8 27 20 46 34 52 31 14 37 106 9 127 -11 7 -22 32 -26 58 -14 86
-81 170 -136 170 -56 0 -124 -87 -136 -173 -5 -35 -11 -47 -24 -47 -13 0 -19
12 -24 47 -12 86 -80 173 -136 173 -56 0 -124 -87 -136 -173 -5 -35 -11 -47
-24 -47 -13 0 -19 12 -24 47 -12 86 -80 173 -136 173 -15 0 -39 -9 -54 -21z
m97 -46 c30 -33 57 -92 57 -128 l0 -25 -100 0 -100 0 0 25 c0 58 63 155 100
155 9 0 28 -12 43 -27z m320 0 c30 -33 57 -92 57 -128 l0 -25 -100 0 -100 0 0
25 c0 58 63 155 100 155 9 0 28 -12 43 -27z m320 0 c30 -33 57 -92 57 -128 l0
-25 -100 0 -100 0 0 25 c0 58 63 155 100 155 9 0 28 -12 43 -27z m97 -223 l0
-30 -460 0 -460 0 0 30 0 30 460 0 460 0 0 -30z m-690 -75 c0 -3 -7 -21 -14
-40 -15 -35 -16 -35 -76 -35 -60 0 -61 0 -76 35 -7 19 -14 37 -14 40 0 3 41 5
90 5 50 0 90 -2 90 -5z m320 0 c0 -3 -7 -21 -14 -40 -15 -35 -16 -35 -76 -35
-60 0 -61 0 -76 35 -7 19 -14 37 -14 40 0 3 41 5 90 5 50 0 90 -2 90 -5z m320
0 c0 -3 -7 -21 -14 -40 -15 -35 -16 -35 -76 -35 -60 0 -61 0 -76 35 -7 19 -14
37 -14 40 0 3 41 5 90 5 50 0 90 -2 90 -5z"/>
</g>
</svg>
