<?xml version="1.0" standalone="no"?>
<!DOCTYPE svg PUBLIC "-//W3C//DTD SVG 20010904//EN"
 "http://www.w3.org/TR/2001/REC-SVG-20010904/DTD/svg10.dtd">
<svg version="1.0" xmlns="http://www.w3.org/2000/svg"
 width="100.000000pt" height="100.000000pt" viewBox="0 0 100.000000 100.000000"
 preserveAspectRatio="xMidYMid meet">

<g transform="translate(0.000000,100.000000) scale(0.100000,-0.100000)"
fill="#000000" stroke="none">
<path d="M860 835 c-58 -25 -157 -66 -220 -92 l-115 -47 -144 2 c-128 2 -146
0 -176 -18 -18 -11 -40 -31 -49 -45 -9 -13 -41 -52 -72 -87 -90 -100 -101
-145 -60 -233 25 -55 83 -112 148 -147 37 -20 58 -23 143 -23 91 0 106 3 167
32 74 35 137 92 168 152 11 22 26 81 34 132 10 68 18 94 32 103 10 6 77 36
148 67 85 36 132 62 134 72 2 10 -3 17 -11 17 -29 0 -283 -111 -306 -134 -18
-19 -26 -44 -37 -117 -16 -109 -45 -165 -111 -215 -95 -73 -239 -96 -333 -53
-114 51 -192 183 -145 245 13 18 14 16 15 -22 0 -83 65 -122 174 -104 152 25
292 104 337 192 17 33 18 45 9 74 -6 18 -23 43 -37 54 -23 18 -24 20 -7 26 11
3 116 45 234 93 137 56 215 93 215 102 0 25 -28 19 -135 -26z m-373 -203 c24
-12 50 -33 59 -46 14 -22 14 -27 0 -54 -39 -75 -170 -150 -303 -172 -56 -9
-111 1 -125 22 -29 46 11 165 80 237 l41 43 103 -4 c81 -3 112 -9 145 -26z"/>
<path d="M224 529 c-10 -17 13 -36 27 -22 12 12 4 33 -11 33 -5 0 -12 -5 -16
-11z"/>
<path d="M184 469 c-10 -17 13 -36 27 -22 12 12 4 33 -11 33 -5 0 -12 -5 -16
-11z"/>
<path d="M264 469 c-10 -17 13 -36 27 -22 12 12 4 33 -11 33 -5 0 -12 -5 -16
-11z"/>
</g>
</svg>
