<?xml version="1.0" standalone="no"?>
<!DOCTYPE svg PUBLIC "-//W3C//DTD SVG 20010904//EN"
 "http://www.w3.org/TR/2001/REC-SVG-20010904/DTD/svg10.dtd">
<svg version="1.0" xmlns="http://www.w3.org/2000/svg"
 width="100.000000pt" height="100.000000pt" viewBox="0 0 100.000000 100.000000"
 preserveAspectRatio="xMidYMid meet">

<g transform="translate(0.000000,100.000000) scale(0.100000,-0.100000)"
fill="#000000" stroke="none">
<path d="M387 954 c-4 -4 -7 -22 -7 -41 0 -28 -3 -33 -24 -33 -29 0 -43 -17
-27 -33 17 -17 14 -143 -5 -180 -9 -18 -44 -70 -77 -116 -83 -116 -111 -187
-104 -268 5 -70 37 -145 87 -205 l31 -38 199 0 199 0 31 38 c80 97 109 225 71
322 -20 52 -20 56 -4 65 68 39 96 107 72 172 -18 46 -56 74 -110 80 -36 4 -51
0 -83 -22 -31 -21 -41 -24 -47 -13 -13 19 -11 152 2 165 16 16 2 33 -26 33
-20 0 -24 6 -27 38 l-3 37 -70 3 c-39 1 -74 0 -78 -4z m113 -54 c0 -17 -7 -20
-40 -20 -33 0 -40 3 -40 20 0 17 7 20 40 20 33 0 40 -3 40 -20z m40 -134 c0
-88 11 -117 82 -216 30 -41 64 -92 77 -112 l23 -38 -262 0 -261 0 12 23 c6 12
38 59 71 104 82 114 98 153 98 241 l0 72 80 0 80 0 0 -74z m231 -115 c20 -20
29 -39 29 -61 0 -36 -47 -90 -77 -90 -19 1 -93 98 -93 124 0 22 49 56 82 56
19 0 40 -10 59 -29z m-37 -356 c-1 -67 -25 -131 -68 -183 l-28 -32 -178 0
-178 0 -28 33 c-37 43 -64 107 -71 166 -10 87 -29 82 279 79 l273 -3 -1 -60z"/>
</g>
</svg>
